<?xml version="1.0" encoding="UTF-8"?>
<svg id="_Шар_2" data-name="Шар 2" xmlns="http://www.w3.org/2000/svg" viewBox="0 0 512.5 508.5">
  <defs>
    <style>
      .cls-1 {
        fill: #003335;
      }

      .cls-2 {
        fill: #56ab6e;
      }
    </style>
  </defs>
  <g id="_Шар_3" data-name="Шар 3">
    <g>
      <rect class="cls-1" x="432.25" y="47.87" width="16" height="15.88"/>
      <rect class="cls-1" x="416.25" y="79.63" width="16" height="15.87"/>
      <rect class="cls-1" x="416.25" y="63.75" width="16" height="15.88"/>
      <rect class="cls-1" x="416.25" y="47.87" width="16" height="15.88"/>
      <rect class="cls-1" x="400.25" y="174.87" width="16" height="15.88"/>
      <rect class="cls-1" x="400.25" y="159" width="16" height="15.87"/>
      <rect class="cls-1" x="400.25" y="143.13" width="16" height="15.87"/>
      <rect class="cls-1" x="400.25" y="127.25" width="16" height="15.88"/>
      <rect class="cls-1" x="400.25" y="111.37" width="16" height="15.88"/>
      <rect class="cls-1" x="400.25" y="95.5" width="16" height="15.87"/>
      <rect class="cls-1" x="400.25" y="79.63" width="16" height="15.87"/>
      <rect class="cls-2" x="400.25" y="63.75" width="16" height="15.88"/>
      <rect class="cls-2" x="400.25" y="47.87" width="16" height="15.88"/>
      <rect class="cls-1" x="384.25" y="190.75" width="16" height="15.88"/>
      <rect class="cls-1" x="384.25" y="174.87" width="16" height="15.88"/>
      <rect class="cls-1" x="384.25" y="159" width="16" height="15.87"/>
      <rect class="cls-1" x="384.25" y="143.13" width="16" height="15.87"/>
      <rect class="cls-2" x="384.25" y="127.25" width="16" height="15.88"/>
      <rect class="cls-2" x="384.25" y="111.37" width="16" height="15.88"/>
      <rect class="cls-2" x="384.25" y="95.5" width="16" height="15.87"/>
      <rect class="cls-2" x="384.25" y="79.63" width="16" height="15.87"/>
      <rect class="cls-2" x="384.25" y="63.75" width="16" height="15.88"/>
      <rect class="cls-2" x="384.25" y="47.87" width="16" height="15.88"/>
      <rect class="cls-1" x="368.25" y="206.63" width="16" height="15.87"/>
      <rect class="cls-1" x="368.25" y="190.75" width="16" height="15.88"/>
      <rect class="cls-1" x="368.25" y="174.87" width="16" height="15.88"/>
      <rect class="cls-2" x="368.25" y="159" width="16" height="15.87"/>
      <rect class="cls-2" x="368.25" y="143.13" width="16" height="15.87"/>
      <rect class="cls-2" x="368.25" y="127.25" width="16" height="15.88"/>
      <rect class="cls-2" x="368.25" y="111.37" width="16" height="15.88"/>
      <rect class="cls-2" x="368.25" y="95.5" width="16" height="15.87"/>
      <rect class="cls-2" x="368.25" y="79.63" width="16" height="15.87"/>
      <rect class="cls-2" x="368.25" y="63.75" width="16" height="15.88"/>
      <rect class="cls-1" x="352.25" y="222.5" width="16" height="15.87"/>
      <rect class="cls-1" x="352.25" y="206.63" width="16" height="15.87"/>
      <rect class="cls-1" x="352.25" y="190.75" width="16" height="15.88"/>
      <rect class="cls-2" x="352.25" y="174.87" width="16" height="15.88"/>
      <rect class="cls-2" x="352.25" y="159" width="16" height="15.87"/>
      <rect class="cls-2" x="352.25" y="143.13" width="16" height="15.87"/>
      <rect class="cls-2" x="352.25" y="127.25" width="16" height="15.88"/>
      <rect class="cls-2" x="352.25" y="111.37" width="16" height="15.88"/>
      <rect class="cls-1" x="336.25" y="254.25" width="16" height="15.88"/>
      <rect class="cls-1" x="336.25" y="238.37" width="16" height="15.88"/>
      <rect class="cls-1" x="336.25" y="222.5" width="16" height="15.87"/>
      <rect class="cls-1" x="336.25" y="206.63" width="16" height="15.87"/>
      <rect class="cls-2" x="336.25" y="190.75" width="16" height="15.88"/>
      <rect class="cls-2" x="336.25" y="174.87" width="16" height="15.88"/>
      <rect class="cls-2" x="336.25" y="159" width="16" height="15.87"/>
      <rect class="cls-2" x="336.25" y="143.13" width="16" height="15.87"/>
      <rect class="cls-2" x="336.25" y="127.25" width="16" height="15.88"/>
      <rect class="cls-1" x="320.25" y="317.75" width="16" height="15.88"/>
      <rect class="cls-1" x="320.25" y="301.87" width="16" height="15.88"/>
      <rect class="cls-1" x="320.25" y="286" width="16" height="15.87"/>
      <rect class="cls-1" x="320.25" y="270.13" width="16" height="15.87"/>
      <rect class="cls-1" x="320.25" y="254.25" width="16" height="15.88"/>
      <rect class="cls-1" x="320.25" y="238.37" width="16" height="15.88"/>
      <rect class="cls-1" x="320.25" y="222.5" width="16" height="15.87"/>
      <rect class="cls-2" x="320.25" y="206.63" width="16" height="15.87"/>
      <rect class="cls-2" x="320.25" y="190.75" width="16" height="15.88"/>
      <rect class="cls-2" x="320.25" y="174.87" width="16" height="15.88"/>
      <rect class="cls-2" x="320.25" y="159" width="16" height="15.87"/>
      <rect class="cls-1" x="304.25" y="317.75" width="16" height="15.88"/>
      <rect class="cls-1" x="304.25" y="301.87" width="16" height="15.88"/>
      <rect class="cls-1" x="304.25" y="286" width="16" height="15.87"/>
      <rect class="cls-1" x="304.25" y="270.13" width="16" height="15.87"/>
      <rect class="cls-1" x="304.25" y="254.25" width="16" height="15.88"/>
      <rect class="cls-1" x="304.25" y="238.37" width="16" height="15.88"/>
      <rect class="cls-1" x="304.25" y="222.5" width="16" height="15.87"/>
      <rect class="cls-2" x="304.25" y="206.63" width="16" height="15.87"/>
      <rect class="cls-2" x="304.25" y="190.75" width="16" height="15.88"/>
      <rect class="cls-2" x="304.25" y="174.87" width="16" height="15.88"/>
      <rect class="cls-2" x="304.25" y="159" width="16" height="15.87"/>
      <rect class="cls-1" x="288.25" y="333.63" width="16" height="15.87"/>
      <rect class="cls-1" x="288.25" y="317.75" width="16" height="15.88"/>
      <rect class="cls-1" x="288.25" y="301.87" width="16" height="15.88"/>
      <rect class="cls-1" x="288.25" y="286" width="16" height="15.87"/>
      <rect class="cls-1" x="288.25" y="270.13" width="16" height="15.87"/>
      <rect class="cls-1" x="288.25" y="254.25" width="16" height="15.88"/>
      <rect class="cls-1" x="288.25" y="238.37" width="16" height="15.88"/>
      <rect class="cls-2" x="288.25" y="222.5" width="16" height="15.87"/>
      <rect class="cls-2" x="288.25" y="206.63" width="16" height="15.87"/>
      <rect class="cls-2" x="288.25" y="190.75" width="16" height="15.88"/>
      <rect class="cls-2" x="288.25" y="174.87" width="16" height="15.88"/>
      <rect class="cls-1" x="272.25" y="333.63" width="16" height="15.87"/>
      <rect class="cls-1" x="272.25" y="317.75" width="16" height="15.88"/>
      <rect class="cls-1" x="272.25" y="301.87" width="16" height="15.88"/>
      <rect class="cls-1" x="272.25" y="286" width="16" height="15.87"/>
      <rect class="cls-2" x="272.25" y="270.13" width="16" height="15.87"/>
      <rect class="cls-2" x="272.25" y="254.25" width="16" height="15.88"/>
      <rect class="cls-2" x="272.25" y="238.37" width="16" height="15.88"/>
      <rect class="cls-2" x="272.25" y="222.5" width="16" height="15.87"/>
      <rect class="cls-2" x="272.25" y="206.63" width="16" height="15.87"/>
      <rect class="cls-2" x="272.25" y="190.75" width="16" height="15.88"/>
      <rect class="cls-1" x="256.25" y="333.63" width="16" height="15.87"/>
      <rect class="cls-1" x="256.25" y="317.75" width="16" height="15.88"/>
      <rect class="cls-1" x="256.25" y="301.87" width="16" height="15.88"/>
      <rect class="cls-1" x="256.25" y="286" width="16" height="15.87"/>
      <rect class="cls-2" x="256.25" y="270.13" width="16" height="15.87"/>
      <rect class="cls-2" x="256.25" y="254.25" width="16" height="15.88"/>
      <rect class="cls-2" x="256.25" y="238.37" width="16" height="15.88"/>
      <rect class="cls-2" x="256.25" y="222.5" width="16" height="15.87"/>
      <rect class="cls-2" x="256.25" y="206.63" width="16" height="15.87"/>
      <rect class="cls-1" x="256.25" y="63.75" width="16" height="15.88"/>
      <rect class="cls-1" x="256.25" y="47.87" width="16" height="15.88"/>
      <rect class="cls-1" x="256.25" y="32" width="16" height="15.87"/>
      <rect class="cls-1" x="240.25" y="349.5" width="16" height="15.87"/>
      <rect class="cls-1" x="240.25" y="333.63" width="16" height="15.87"/>
      <rect class="cls-1" x="240.25" y="317.75" width="16" height="15.88"/>
      <rect class="cls-2" x="240.25" y="301.87" width="16" height="15.88"/>
      <rect class="cls-2" x="240.25" y="286" width="16" height="15.87"/>
      <rect class="cls-2" x="240.25" y="270.13" width="16" height="15.87"/>
      <rect class="cls-2" x="240.25" y="254.25" width="16" height="15.88"/>
      <rect class="cls-2" x="240.25" y="238.37" width="16" height="15.88"/>
      <rect class="cls-1" x="240.25" y="95.5" width="16" height="15.87"/>
      <rect class="cls-1" x="240.25" y="79.63" width="16" height="15.87"/>
      <rect class="cls-1" x="240.25" y="63.75" width="16" height="15.88"/>
      <rect class="cls-1" x="240.25" y="47.87" width="16" height="15.88"/>
      <rect class="cls-1" x="240.25" y="32" width="16" height="15.87"/>
      <rect class="cls-1" x="240.25" y="16.13" width="16" height="15.87"/>
      <rect class="cls-1" x="224.25" y="381.25" width="16" height="15.88"/>
      <rect class="cls-1" x="224.25" y="365.37" width="16" height="15.88"/>
      <rect class="cls-1" x="224.25" y="349.5" width="16" height="15.87"/>
      <rect class="cls-1" x="224.25" y="333.63" width="16" height="15.87"/>
      <rect class="cls-2" x="224.25" y="317.75" width="16" height="15.88"/>
      <rect class="cls-2" x="224.25" y="301.87" width="16" height="15.88"/>
      <rect class="cls-2" x="224.25" y="286" width="16" height="15.87"/>
      <rect class="cls-2" x="224.25" y="270.13" width="16" height="15.87"/>
      <rect class="cls-1" x="224.25" y="127.25" width="16" height="15.88"/>
      <rect class="cls-1" x="224.25" y="111.37" width="16" height="15.88"/>
      <rect class="cls-1" x="224.25" y="95.5" width="16" height="15.87"/>
      <rect class="cls-1" x="224.25" y="79.63" width="16" height="15.87"/>
      <rect class="cls-1" x="224.25" y="63.75" width="16" height="15.88"/>
      <rect class="cls-1" x="224.25" y="47.87" width="16" height="15.88"/>
      <rect class="cls-2" x="224.25" y="32" width="16" height="15.87"/>
      <rect class="cls-1" x="224.25" y="16.13" width="16" height="15.87"/>
      <rect class="cls-1" x="224.25" y=".25" width="16" height="15.88"/>
      <rect class="cls-1" x="208.25" y="428.87" width="16" height="15.88"/>
      <rect class="cls-1" x="208.25" y="413" width="16" height="15.87"/>
      <rect class="cls-1" x="208.25" y="397.13" width="16" height="15.87"/>
      <rect class="cls-1" x="208.25" y="381.25" width="16" height="15.88"/>
      <rect class="cls-1" x="208.25" y="365.37" width="16" height="15.88"/>
      <rect class="cls-1" x="208.25" y="349.5" width="16" height="15.87"/>
      <rect class="cls-1" x="208.25" y="333.63" width="16" height="15.87"/>
      <rect class="cls-2" x="208.25" y="317.75" width="16" height="15.88"/>
      <rect class="cls-2" x="208.25" y="301.87" width="16" height="15.88"/>
      <rect class="cls-2" x="208.25" y="286" width="16" height="15.87"/>
      <rect class="cls-1" x="208.25" y="159" width="16" height="15.87"/>
      <rect class="cls-1" x="208.25" y="143.13" width="16" height="15.87"/>
      <rect class="cls-1" x="208.25" y="127.25" width="16" height="15.88"/>
      <rect class="cls-1" x="208.25" y="111.37" width="16" height="15.88"/>
      <rect class="cls-1" x="208.25" y="95.5" width="16" height="15.87"/>
      <rect class="cls-2" x="208.25" y="79.63" width="16" height="15.87"/>
      <rect class="cls-2" x="208.25" y="63.75" width="16" height="15.88"/>
      <rect class="cls-2" x="208.25" y="47.87" width="16" height="15.88"/>
      <rect class="cls-2" x="208.25" y="32" width="16" height="15.87"/>
      <rect class="cls-2" x="208.25" y="16.13" width="16" height="15.87"/>
      <rect class="cls-1" x="208.25" y=".25" width="16" height="15.88"/>
      <rect class="cls-1" x="192.25" y="428.87" width="16" height="15.88"/>
      <rect class="cls-1" x="192.25" y="413" width="16" height="15.87"/>
      <rect class="cls-1" x="192.25" y="397.13" width="16" height="15.87"/>
      <rect class="cls-1" x="192.25" y="381.25" width="16" height="15.88"/>
      <rect class="cls-2" x="192.25" y="365.37" width="16" height="15.88"/>
      <rect class="cls-2" x="192.25" y="349.5" width="16" height="15.87"/>
      <rect class="cls-2" x="192.25" y="333.63" width="16" height="15.87"/>
      <rect class="cls-2" x="192.25" y="317.75" width="16" height="15.88"/>
      <rect class="cls-2" x="192.25" y="301.87" width="16" height="15.88"/>
      <rect class="cls-1" x="192.25" y="206.63" width="16" height="15.87"/>
      <rect class="cls-1" x="192.25" y="190.75" width="16" height="15.88"/>
      <rect class="cls-1" x="192.25" y="174.87" width="16" height="15.88"/>
      <rect class="cls-1" x="192.25" y="159" width="16" height="15.87"/>
      <rect class="cls-1" x="192.25" y="143.13" width="16" height="15.87"/>
      <rect class="cls-1" x="192.25" y="127.25" width="16" height="15.88"/>
      <rect class="cls-2" x="192.25" y="111.37" width="16" height="15.88"/>
      <rect class="cls-2" x="192.25" y="95.5" width="16" height="15.87"/>
      <rect class="cls-2" x="192.25" y="79.63" width="16" height="15.87"/>
      <rect class="cls-2" x="192.25" y="63.75" width="16" height="15.88"/>
      <rect class="cls-2" x="192.25" y="16.13" width="16" height="15.87"/>
      <rect class="cls-1" x="192.25" y=".25" width="16" height="15.88"/>
      <rect class="cls-1" x="176.25" y="428.87" width="16" height="15.88"/>
      <rect class="cls-1" x="176.25" y="413" width="16" height="15.87"/>
      <rect class="cls-1" x="176.25" y="397.13" width="16" height="15.87"/>
      <rect class="cls-2" x="176.25" y="381.25" width="16" height="15.88"/>
      <rect class="cls-2" x="176.25" y="365.37" width="16" height="15.88"/>
      <rect class="cls-2" x="176.25" y="349.5" width="16" height="15.87"/>
      <rect class="cls-2" x="176.25" y="333.63" width="16" height="15.87"/>
      <rect class="cls-2" x="176.25" y="317.75" width="16" height="15.88"/>
      <rect class="cls-2" x="176.25" y="301.87" width="16" height="15.88"/>
      <rect class="cls-1" x="176.25" y="238.37" width="16" height="15.88"/>
      <rect class="cls-1" x="176.25" y="222.5" width="16" height="15.87"/>
      <rect class="cls-1" x="176.25" y="206.63" width="16" height="15.87"/>
      <rect class="cls-1" x="176.25" y="190.75" width="16" height="15.88"/>
      <rect class="cls-1" x="176.25" y="174.87" width="16" height="15.88"/>
      <rect class="cls-1" x="176.25" y="159" width="16" height="15.87"/>
      <rect class="cls-1" x="176.25" y="143.13" width="16" height="15.87"/>
      <rect class="cls-2" x="176.25" y="127.25" width="16" height="15.88"/>
      <rect class="cls-2" x="176.25" y="111.37" width="16" height="15.88"/>
      <rect class="cls-2" x="176.25" y="95.5" width="16" height="15.87"/>
      <rect class="cls-2" x="176.25" y="79.63" width="16" height="15.87"/>
      <rect class="cls-1" x="176.25" y=".25" width="16" height="15.88"/>
      <rect class="cls-1" x="160.25" y="444.75" width="16" height="15.88"/>
      <rect class="cls-1" x="160.25" y="428.87" width="16" height="15.88"/>
      <rect class="cls-1" x="160.25" y="413" width="16" height="15.87"/>
      <rect class="cls-1" x="160.25" y="397.13" width="16" height="15.87"/>
      <rect class="cls-2" x="160.25" y="381.25" width="16" height="15.88"/>
      <rect class="cls-2" x="160.25" y="365.37" width="16" height="15.88"/>
      <rect class="cls-2" x="160.25" y="349.5" width="16" height="15.87"/>
      <rect class="cls-2" x="160.25" y="333.63" width="16" height="15.87"/>
      <rect class="cls-2" x="160.25" y="317.75" width="16" height="15.88"/>
      <rect class="cls-1" x="160.25" y="254.25" width="16" height="15.88"/>
      <rect class="cls-1" x="160.25" y="238.37" width="16" height="15.88"/>
      <rect class="cls-1" x="160.25" y="222.5" width="16" height="15.87"/>
      <rect class="cls-1" x="160.25" y="206.63" width="16" height="15.87"/>
      <rect class="cls-2" x="160.25" y="190.75" width="16" height="15.88"/>
      <rect class="cls-2" x="160.25" y="174.87" width="16" height="15.88"/>
      <rect class="cls-2" x="160.25" y="159" width="16" height="15.87"/>
      <rect class="cls-2" x="160.25" y="143.13" width="16" height="15.87"/>
      <rect class="cls-2" x="160.25" y="127.25" width="16" height="15.88"/>
      <rect class="cls-2" x="160.25" y="111.37" width="16" height="15.88"/>
      <rect class="cls-2" x="160.25" y="95.5" width="16" height="15.87"/>
      <rect class="cls-1" x="144.25" y="444.75" width="16" height="15.88"/>
      <rect class="cls-1" x="144.25" y="428.87" width="16" height="15.88"/>
      <rect class="cls-1" x="144.25" y="413" width="16" height="15.87"/>
      <rect class="cls-1" x="144.25" y="397.13" width="16" height="15.87"/>
      <rect class="cls-2" x="144.25" y="381.25" width="16" height="15.88"/>
      <rect class="cls-2" x="144.25" y="365.37" width="16" height="15.88"/>
      <rect class="cls-2" x="144.25" y="349.5" width="16" height="15.87"/>
      <rect class="cls-2" x="144.25" y="333.63" width="16" height="15.87"/>
      <rect class="cls-1" x="144.25" y="301.87" width="16" height="15.88"/>
      <rect class="cls-1" x="144.25" y="286" width="16" height="15.87"/>
      <rect class="cls-1" x="144.25" y="270.13" width="16" height="15.87"/>
      <rect class="cls-1" x="144.25" y="254.25" width="16" height="15.88"/>
      <rect class="cls-1" x="144.25" y="238.37" width="16" height="15.88"/>
      <rect class="cls-1" x="144.25" y="222.5" width="16" height="15.87"/>
      <rect class="cls-2" x="144.25" y="206.63" width="16" height="15.87"/>
      <rect class="cls-2" x="144.25" y="190.75" width="16" height="15.88"/>
      <rect class="cls-2" x="144.25" y="174.87" width="16" height="15.88"/>
      <rect class="cls-2" x="144.25" y="159" width="16" height="15.87"/>
      <rect class="cls-2" x="144.25" y="143.13" width="16" height="15.87"/>
      <rect class="cls-2" x="144.25" y="127.25" width="16" height="15.88"/>
      <rect class="cls-2" x="144.25" y="111.37" width="16" height="15.88"/>
      <rect class="cls-1" x="128.25" y="492.37" width="16" height="15.88"/>
      <rect class="cls-1" x="128.25" y="460.63" width="16" height="15.87"/>
      <rect class="cls-1" x="128.25" y="444.75" width="16" height="15.88"/>
      <rect class="cls-1" x="128.25" y="428.87" width="16" height="15.88"/>
      <rect class="cls-1" x="128.25" y="413" width="16" height="15.87"/>
      <rect class="cls-2" x="128.25" y="397.13" width="16" height="15.87"/>
      <rect class="cls-2" x="128.25" y="381.25" width="16" height="15.88"/>
      <rect class="cls-2" x="128.25" y="365.37" width="16" height="15.88"/>
      <rect class="cls-2" x="128.25" y="349.5" width="16" height="15.87"/>
      <rect class="cls-1" x="128.25" y="333.63" width="16" height="15.87"/>
      <rect class="cls-1" x="128.25" y="317.75" width="16" height="15.88"/>
      <rect class="cls-1" x="128.25" y="301.87" width="16" height="15.88"/>
      <rect class="cls-1" x="128.25" y="286" width="16" height="15.87"/>
      <rect class="cls-1" x="128.25" y="270.13" width="16" height="15.87"/>
      <rect class="cls-2" x="128.25" y="254.25" width="16" height="15.88"/>
      <rect class="cls-2" x="128.25" y="238.37" width="16" height="15.88"/>
      <rect class="cls-2" x="128.25" y="222.5" width="16" height="15.87"/>
      <rect class="cls-2" x="128.25" y="206.63" width="16" height="15.87"/>
      <rect class="cls-2" x="128.25" y="190.75" width="16" height="15.88"/>
      <rect class="cls-2" x="128.25" y="174.87" width="16" height="15.88"/>
      <rect class="cls-2" x="128.25" y="159" width="16" height="15.87"/>
      <rect class="cls-2" x="128.25" y="143.13" width="16" height="15.87"/>
      <rect class="cls-2" x="128.25" y="127.25" width="16" height="15.88"/>
      <rect class="cls-1" x="112.25" y="492.37" width="16" height="15.88"/>
      <rect class="cls-1" x="112.25" y="476.5" width="16" height="15.87"/>
      <rect class="cls-1" x="112.25" y="460.63" width="16" height="15.87"/>
      <rect class="cls-1" x="112.25" y="444.75" width="16" height="15.88"/>
      <rect class="cls-1" x="112.25" y="428.87" width="16" height="15.88"/>
      <rect class="cls-2" x="112.25" y="413" width="16" height="15.87"/>
      <rect class="cls-2" x="112.25" y="397.13" width="16" height="15.87"/>
      <rect class="cls-2" x="112.25" y="381.25" width="16" height="15.88"/>
      <rect class="cls-1" x="112.25" y="365.37" width="16" height="15.88"/>
      <rect class="cls-1" x="112.25" y="349.5" width="16" height="15.87"/>
      <rect class="cls-1" x="112.25" y="333.63" width="16" height="15.87"/>
      <rect class="cls-1" x="112.25" y="317.75" width="16" height="15.88"/>
      <rect class="cls-1" x="112.25" y="301.87" width="16" height="15.88"/>
      <rect class="cls-2" x="112.25" y="286" width="16" height="15.87"/>
      <rect class="cls-2" x="112.25" y="270.13" width="16" height="15.87"/>
      <rect class="cls-2" x="112.25" y="254.25" width="16" height="15.88"/>
      <rect class="cls-2" x="112.25" y="238.37" width="16" height="15.88"/>
      <rect class="cls-2" x="112.25" y="222.5" width="16" height="15.87"/>
      <rect class="cls-2" x="112.25" y="206.63" width="16" height="15.87"/>
      <rect class="cls-2" x="112.25" y="190.75" width="16" height="15.88"/>
      <rect class="cls-2" x="112.25" y="174.87" width="16" height="15.88"/>
      <rect class="cls-2" x="112.25" y="159" width="16" height="15.87"/>
      <rect class="cls-2" x="112.25" y="143.13" width="16" height="15.87"/>
      <rect class="cls-1" x="96.25" y="492.37" width="16" height="15.88"/>
      <rect class="cls-1" x="96.25" y="476.5" width="16" height="15.87"/>
      <rect class="cls-1" x="96.25" y="460.63" width="16" height="15.87"/>
      <rect class="cls-1" x="96.25" y="444.75" width="16" height="15.88"/>
      <rect class="cls-1" x="96.25" y="428.87" width="16" height="15.88"/>
      <rect class="cls-2" x="96.25" y="413" width="16" height="15.87"/>
      <rect class="cls-2" x="96.25" y="397.13" width="16" height="15.87"/>
      <rect class="cls-2" x="96.25" y="381.25" width="16" height="15.88"/>
      <rect class="cls-1" x="96.25" y="365.37" width="16" height="15.88"/>
      <rect class="cls-1" x="96.25" y="349.5" width="16" height="15.87"/>
      <rect class="cls-1" x="96.25" y="333.63" width="16" height="15.87"/>
      <rect class="cls-1" x="96.25" y="317.75" width="16" height="15.88"/>
      <rect class="cls-2" x="96.25" y="301.87" width="16" height="15.88"/>
      <rect class="cls-2" x="96.25" y="286" width="16" height="15.87"/>
      <rect class="cls-2" x="96.25" y="206.63" width="16" height="15.87"/>
      <rect class="cls-2" x="96.25" y="190.75" width="16" height="15.88"/>
      <rect class="cls-2" x="80.25" y="492.37" width="16" height="15.88"/>
      <rect class="cls-2" x="80.25" y="476.5" width="16" height="15.87"/>
      <rect class="cls-1" x="80.25" y="460.63" width="16" height="15.87"/>
      <rect class="cls-2" x="80.25" y="444.75" width="16" height="15.88"/>
      <rect class="cls-2" x="80.25" y="428.87" width="16" height="15.88"/>
      <rect class="cls-2" x="80.25" y="413" width="16" height="15.87"/>
      <rect class="cls-2" x="80.25" y="397.13" width="16" height="15.87"/>
      <rect class="cls-1" x="80.25" y="381.25" width="16" height="15.88"/>
      <rect class="cls-1" x="80.25" y="365.37" width="16" height="15.88"/>
      <rect class="cls-1" x="80.25" y="349.5" width="16" height="15.87"/>
      <rect class="cls-1" x="80.25" y="333.63" width="16" height="15.87"/>
      <rect class="cls-2" x="80.25" y="317.75" width="16" height="15.88"/>
      <rect class="cls-2" x="80.25" y="301.87" width="16" height="15.88"/>
      <rect class="cls-2" x="80.25" y="286" width="16" height="15.87"/>
      <rect class="cls-2" x="64.25" y="476.5" width="16" height="15.87"/>
      <rect class="cls-2" x="64.25" y="460.63" width="16" height="15.87"/>
      <rect class="cls-2" x="64.25" y="444.75" width="16" height="15.88"/>
      <rect class="cls-2" x="64.25" y="428.87" width="16" height="15.88"/>
      <rect class="cls-1" x="64.25" y="413" width="16" height="15.87"/>
      <rect class="cls-1" x="64.25" y="397.13" width="16" height="15.87"/>
      <rect class="cls-1" x="64.25" y="381.25" width="16" height="15.88"/>
      <rect class="cls-1" x="64.25" y="365.37" width="16" height="15.88"/>
      <rect class="cls-1" x="64.25" y="349.5" width="16" height="15.87"/>
      <rect class="cls-2" x="64.25" y="333.63" width="16" height="15.87"/>
      <rect class="cls-2" x="64.25" y="317.75" width="16" height="15.88"/>
      <rect class="cls-2" x="64.25" y="301.87" width="16" height="15.88"/>
      <rect class="cls-2" x="48.25" y="460.63" width="16" height="15.87"/>
      <rect class="cls-2" x="48.25" y="444.75" width="16" height="15.88"/>
      <rect class="cls-2" x="48.25" y="428.87" width="16" height="15.88"/>
      <rect class="cls-2" x="48.25" y="413" width="16" height="15.87"/>
      <rect class="cls-2" x="48.25" y="397.13" width="16" height="15.87"/>
      <rect class="cls-2" x="48.25" y="381.25" width="16" height="15.88"/>
      <rect class="cls-2" x="48.25" y="365.37" width="16" height="15.88"/>
      <rect class="cls-2" x="48.25" y="349.5" width="16" height="15.87"/>
      <rect class="cls-2" x="48.25" y="333.63" width="16" height="15.87"/>
      <rect class="cls-2" x="48.25" y="317.75" width="16" height="15.88"/>
      <rect class="cls-2" x="32.25" y="444.75" width="16" height="15.88"/>
      <rect class="cls-2" x="32.25" y="428.87" width="16" height="15.88"/>
      <rect class="cls-2" x="32.25" y="413" width="16" height="15.87"/>
      <rect class="cls-2" x="32.25" y="397.13" width="16" height="15.87"/>
      <rect class="cls-2" x="32.25" y="381.25" width="16" height="15.88"/>
      <rect class="cls-2" x="32.25" y="365.37" width="16" height="15.88"/>
      <rect class="cls-2" x="32.25" y="349.5" width="16" height="15.87"/>
      <rect class="cls-2" x="16.25" y="428.87" width="16" height="15.88"/>
      <rect class="cls-2" x="16.25" y="413" width="16" height="15.87"/>
      <rect class="cls-2" x="16.25" y="397.13" width="16" height="15.87"/>
      <rect class="cls-2" x="16.25" y="381.25" width="16" height="15.88"/>
      <rect class="cls-2" x="16.25" y="365.37" width="16" height="15.88"/>
      <rect class="cls-2" x="16.25" y="349.5" width="16" height="15.87"/>
    </g>
  </g>
</svg>