<?xml version="1.0" encoding="UTF-8"?>
<svg id="_Шар_2" data-name="Шар 2" xmlns="http://www.w3.org/2000/svg" viewBox="0 0 512.5 512.5">
  <defs>
    <style>
      .cls-1 {
        fill: #04502f;
      }

      .cls-2 {
        fill: #ffc600;
      }

      .cls-3 {
        fill: #b7eb74;
      }

      .cls-4 {
        fill: #a8661f;
      }
    </style>
  </defs>
  <g id="_Шар_2-2" data-name="Шар 2">
    <g>
      <rect class="cls-1" x="400.25" y="48.25" width="16" height="16"/>
      <rect class="cls-1" x="400.25" y="32.25" width="16" height="16"/>
      <rect class="cls-3" x="400.25" y="16.25" width="16" height="16"/>
      <rect class="cls-1" x="384.25" y="48.25" width="16" height="16"/>
      <rect class="cls-1" x="384.25" y="32.25" width="16" height="16"/>
      <rect class="cls-1" x="384.25" y="16.25" width="16" height="16"/>
      <rect class="cls-3" x="384.25" y=".25" width="16" height="16"/>
      <rect class="cls-1" x="368.25" y="48.25" width="16" height="16"/>
      <rect class="cls-1" x="368.25" y="32.25" width="16" height="16"/>
      <rect class="cls-1" x="368.25" y="16.25" width="16" height="16"/>
      <rect class="cls-3" x="368.25" y=".25" width="16" height="16"/>
      <rect class="cls-3" x="352.25" y="128.25" width="16" height="16"/>
      <rect class="cls-3" x="352.25" y="112.25" width="16" height="16"/>
      <rect class="cls-3" x="352.25" y="96.25" width="16" height="16"/>
      <rect class="cls-3" x="352.25" y="80.25" width="16" height="16"/>
      <rect class="cls-1" x="352.25" y="48.25" width="16" height="16"/>
      <rect class="cls-1" x="352.25" y="32.25" width="16" height="16"/>
      <rect class="cls-3" x="352.25" y="16.25" width="16" height="16"/>
      <rect class="cls-3" x="352.25" y=".25" width="16" height="16"/>
      <rect class="cls-4" x="336.25" y="400.25" width="16" height="16"/>
      <rect class="cls-4" x="336.25" y="384.25" width="16" height="16"/>
      <rect class="cls-4" x="336.25" y="368.25" width="16" height="16"/>
      <rect class="cls-1" x="336.25" y="128.25" width="16" height="16"/>
      <rect class="cls-1" x="336.25" y="112.25" width="16" height="16"/>
      <rect class="cls-1" x="336.25" y="96.25" width="16" height="16"/>
      <rect class="cls-3" x="336.25" y="80.25" width="16" height="16"/>
      <rect class="cls-3" x="336.25" y="48.25" width="16" height="16"/>
      <rect class="cls-3" x="336.25" y="32.25" width="16" height="16"/>
      <rect class="cls-4" x="320.25" y="400.25" width="16" height="16"/>
      <rect class="cls-2" x="320.25" y="384.25" width="16" height="16"/>
      <rect class="cls-2" x="320.25" y="368.25" width="16" height="16"/>
      <rect class="cls-3" x="320.25" y="192.25" width="16" height="16"/>
      <rect class="cls-3" x="320.25" y="176.25" width="16" height="16"/>
      <rect class="cls-1" x="320.25" y="128.25" width="16" height="16"/>
      <rect class="cls-1" x="320.25" y="112.25" width="16" height="16"/>
      <rect class="cls-1" x="320.25" y="96.25" width="16" height="16"/>
      <rect class="cls-3" x="320.25" y="80.25" width="16" height="16"/>
      <rect class="cls-3" x="320.25" y="48.25" width="16" height="16"/>
      <rect class="cls-4" x="304.25" y="400.25" width="16" height="16"/>
      <rect class="cls-2" x="304.25" y="384.25" width="16" height="16"/>
      <rect class="cls-2" x="304.25" y="368.25" width="16" height="16"/>
      <rect class="cls-4" x="304.25" y="304.25" width="16" height="16"/>
      <rect class="cls-4" x="304.25" y="288.25" width="16" height="16"/>
      <rect class="cls-4" x="304.25" y="272.25" width="16" height="16"/>
      <rect class="cls-1" x="304.25" y="208.25" width="16" height="16"/>
      <rect class="cls-1" x="304.25" y="192.25" width="16" height="16"/>
      <rect class="cls-1" x="304.25" y="176.25" width="16" height="16"/>
      <rect class="cls-3" x="304.25" y="160.25" width="16" height="16"/>
      <rect class="cls-3" x="304.25" y="144.25" width="16" height="16"/>
      <rect class="cls-1" x="304.25" y="112.25" width="16" height="16"/>
      <rect class="cls-1" x="304.25" y="96.25" width="16" height="16"/>
      <rect class="cls-3" x="304.25" y="80.25" width="16" height="16"/>
      <rect class="cls-3" x="304.25" y="48.25" width="16" height="16"/>
      <rect class="cls-1" x="304.25" y="32.25" width="16" height="16"/>
      <rect class="cls-3" x="304.25" y="16.25" width="16" height="16"/>
      <rect class="cls-4" x="288.25" y="352.25" width="16" height="16"/>
      <rect class="cls-4" x="288.25" y="336.25" width="16" height="16"/>
      <rect class="cls-4" x="288.25" y="320.25" width="16" height="16"/>
      <rect class="cls-4" x="288.25" y="304.25" width="16" height="16"/>
      <rect class="cls-2" x="288.25" y="288.25" width="16" height="16"/>
      <rect class="cls-2" x="288.25" y="272.25" width="16" height="16"/>
      <rect class="cls-1" x="288.25" y="208.25" width="16" height="16"/>
      <rect class="cls-1" x="288.25" y="192.25" width="16" height="16"/>
      <rect class="cls-1" x="288.25" y="176.25" width="16" height="16"/>
      <rect class="cls-1" x="288.25" y="160.25" width="16" height="16"/>
      <rect class="cls-3" x="288.25" y="144.25" width="16" height="16"/>
      <rect class="cls-1" x="288.25" y="96.25" width="16" height="16"/>
      <rect class="cls-3" x="288.25" y="80.25" width="16" height="16"/>
      <rect class="cls-3" x="288.25" y="64.25" width="16" height="16"/>
      <rect class="cls-1" x="288.25" y="48.25" width="16" height="16"/>
      <rect class="cls-1" x="288.25" y="32.25" width="16" height="16"/>
      <rect class="cls-3" x="288.25" y="16.25" width="16" height="16"/>
      <rect class="cls-4" x="272.25" y="352.25" width="16" height="16"/>
      <rect class="cls-2" x="272.25" y="336.25" width="16" height="16"/>
      <rect class="cls-2" x="272.25" y="320.25" width="16" height="16"/>
      <rect class="cls-4" x="272.25" y="304.25" width="16" height="16"/>
      <rect class="cls-2" x="272.25" y="288.25" width="16" height="16"/>
      <rect class="cls-2" x="272.25" y="272.25" width="16" height="16"/>
      <rect class="cls-1" x="272.25" y="208.25" width="16" height="16"/>
      <rect class="cls-1" x="272.25" y="192.25" width="16" height="16"/>
      <rect class="cls-1" x="272.25" y="176.25" width="16" height="16"/>
      <rect class="cls-1" x="272.25" y="160.25" width="16" height="16"/>
      <rect class="cls-3" x="272.25" y="144.25" width="16" height="16"/>
      <rect class="cls-3" x="272.25" y="96.25" width="16" height="16"/>
      <rect class="cls-3" x="272.25" y="80.25" width="16" height="16"/>
      <rect class="cls-3" x="272.25" y="64.25" width="16" height="16"/>
      <rect class="cls-3" x="272.25" y="48.25" width="16" height="16"/>
      <rect class="cls-3" x="272.25" y="32.25" width="16" height="16"/>
      <rect class="cls-3" x="272.25" y="16.25" width="16" height="16"/>
      <rect class="cls-4" x="256.25" y="384.25" width="16" height="16"/>
      <rect class="cls-4" x="256.25" y="368.25" width="16" height="16"/>
      <rect class="cls-4" x="256.25" y="352.25" width="16" height="16"/>
      <rect class="cls-2" x="256.25" y="336.25" width="16" height="16"/>
      <rect class="cls-2" x="256.25" y="320.25" width="16" height="16"/>
      <rect class="cls-1" x="256.25" y="208.25" width="16" height="16"/>
      <rect class="cls-1" x="256.25" y="192.25" width="16" height="16"/>
      <rect class="cls-1" x="256.25" y="176.25" width="16" height="16"/>
      <rect class="cls-1" x="256.25" y="160.25" width="16" height="16"/>
      <rect class="cls-3" x="256.25" y="144.25" width="16" height="16"/>
      <rect class="cls-3" x="256.25" y="112.25" width="16" height="16"/>
      <rect class="cls-3" x="256.25" y="96.25" width="16" height="16"/>
      <rect class="cls-4" x="240.25" y="384.25" width="16" height="16"/>
      <rect class="cls-2" x="240.25" y="368.25" width="16" height="16"/>
      <rect class="cls-2" x="240.25" y="352.25" width="16" height="16"/>
      <rect class="cls-4" x="240.25" y="320.25" width="16" height="16"/>
      <rect class="cls-4" x="240.25" y="304.25" width="16" height="16"/>
      <rect class="cls-4" x="240.25" y="288.25" width="16" height="16"/>
      <rect class="cls-1" x="240.25" y="192.25" width="16" height="16"/>
      <rect class="cls-1" x="240.25" y="176.25" width="16" height="16"/>
      <rect class="cls-1" x="240.25" y="160.25" width="16" height="16"/>
      <rect class="cls-3" x="240.25" y="144.25" width="16" height="16"/>
      <rect class="cls-3" x="240.25" y="128.25" width="16" height="16"/>
      <rect class="cls-3" x="240.25" y="112.25" width="16" height="16"/>
      <rect class="cls-3" x="240.25" y="96.25" width="16" height="16"/>
      <rect class="cls-1" x="240.25" y="80.25" width="16" height="16"/>
      <rect class="cls-1" x="240.25" y="64.25" width="16" height="16"/>
      <rect class="cls-1" x="240.25" y="48.25" width="16" height="16"/>
      <rect class="cls-3" x="240.25" y="32.25" width="16" height="16"/>
      <rect class="cls-4" x="224.25" y="384.25" width="16" height="16"/>
      <rect class="cls-2" x="224.25" y="368.25" width="16" height="16"/>
      <rect class="cls-2" x="224.25" y="352.25" width="16" height="16"/>
      <rect class="cls-4" x="224.25" y="320.25" width="16" height="16"/>
      <rect class="cls-2" x="224.25" y="304.25" width="16" height="16"/>
      <rect class="cls-2" x="224.25" y="288.25" width="16" height="16"/>
      <rect class="cls-4" x="224.25" y="272.25" width="16" height="16"/>
      <rect class="cls-4" x="224.25" y="256.25" width="16" height="16"/>
      <rect class="cls-4" x="224.25" y="240.25" width="16" height="16"/>
      <rect class="cls-1" x="224.25" y="160.25" width="16" height="16"/>
      <rect class="cls-3" x="224.25" y="144.25" width="16" height="16"/>
      <rect class="cls-3" x="224.25" y="128.25" width="16" height="16"/>
      <rect class="cls-3" x="224.25" y="112.25" width="16" height="16"/>
      <rect class="cls-1" x="224.25" y="96.25" width="16" height="16"/>
      <rect class="cls-1" x="224.25" y="80.25" width="16" height="16"/>
      <rect class="cls-1" x="224.25" y="64.25" width="16" height="16"/>
      <rect class="cls-1" x="224.25" y="48.25" width="16" height="16"/>
      <rect class="cls-3" x="224.25" y="32.25" width="16" height="16"/>
      <rect class="cls-4" x="208.25" y="352.25" width="16" height="16"/>
      <rect class="cls-4" x="208.25" y="336.25" width="16" height="16"/>
      <rect class="cls-4" x="208.25" y="320.25" width="16" height="16"/>
      <rect class="cls-2" x="208.25" y="304.25" width="16" height="16"/>
      <rect class="cls-2" x="208.25" y="288.25" width="16" height="16"/>
      <rect class="cls-4" x="208.25" y="272.25" width="16" height="16"/>
      <rect class="cls-2" x="208.25" y="256.25" width="16" height="16"/>
      <rect class="cls-2" x="208.25" y="240.25" width="16" height="16"/>
      <rect class="cls-1" x="208.25" y="160.25" width="16" height="16"/>
      <rect class="cls-3" x="208.25" y="144.25" width="16" height="16"/>
      <rect class="cls-3" x="208.25" y="128.25" width="16" height="16"/>
      <rect class="cls-1" x="208.25" y="112.25" width="16" height="16"/>
      <rect class="cls-1" x="208.25" y="96.25" width="16" height="16"/>
      <rect class="cls-1" x="208.25" y="80.25" width="16" height="16"/>
      <rect class="cls-1" x="208.25" y="64.25" width="16" height="16"/>
      <rect class="cls-3" x="208.25" y="48.25" width="16" height="16"/>
      <rect class="cls-3" x="208.25" y="32.25" width="16" height="16"/>
      <rect class="cls-4" x="192.25" y="416.25" width="16" height="16"/>
      <rect class="cls-4" x="192.25" y="400.25" width="16" height="16"/>
      <rect class="cls-4" x="192.25" y="384.25" width="16" height="16"/>
      <rect class="cls-4" x="192.25" y="352.25" width="16" height="16"/>
      <rect class="cls-2" x="192.25" y="336.25" width="16" height="16"/>
      <rect class="cls-2" x="192.25" y="320.25" width="16" height="16"/>
      <rect class="cls-4" x="192.25" y="272.25" width="16" height="16"/>
      <rect class="cls-2" x="192.25" y="256.25" width="16" height="16"/>
      <rect class="cls-2" x="192.25" y="240.25" width="16" height="16"/>
      <rect class="cls-3" x="192.25" y="144.25" width="16" height="16"/>
      <rect class="cls-3" x="192.25" y="128.25" width="16" height="16"/>
      <rect class="cls-1" x="192.25" y="112.25" width="16" height="16"/>
      <rect class="cls-1" x="192.25" y="96.25" width="16" height="16"/>
      <rect class="cls-3" x="192.25" y="80.25" width="16" height="16"/>
      <rect class="cls-3" x="192.25" y="64.25" width="16" height="16"/>
      <rect class="cls-3" x="192.25" y="48.25" width="16" height="16"/>
      <rect class="cls-3" x="176.25" y="496.25" width="16" height="16"/>
      <rect class="cls-4" x="176.25" y="416.25" width="16" height="16"/>
      <rect class="cls-2" x="176.25" y="400.25" width="16" height="16"/>
      <rect class="cls-2" x="176.25" y="384.25" width="16" height="16"/>
      <rect class="cls-4" x="176.25" y="352.25" width="16" height="16"/>
      <rect class="cls-2" x="176.25" y="336.25" width="16" height="16"/>
      <rect class="cls-2" x="176.25" y="320.25" width="16" height="16"/>
      <rect class="cls-4" x="176.25" y="304.25" width="16" height="16"/>
      <rect class="cls-4" x="176.25" y="288.25" width="16" height="16"/>
      <rect class="cls-4" x="176.25" y="272.25" width="16" height="16"/>
      <rect class="cls-3" x="176.25" y="144.25" width="16" height="16"/>
      <rect class="cls-3" x="160.25" y="496.25" width="16" height="16"/>
      <rect class="cls-4" x="160.25" y="416.25" width="16" height="16"/>
      <rect class="cls-2" x="160.25" y="400.25" width="16" height="16"/>
      <rect class="cls-2" x="160.25" y="384.25" width="16" height="16"/>
      <rect class="cls-4" x="160.25" y="304.25" width="16" height="16"/>
      <rect class="cls-2" x="160.25" y="288.25" width="16" height="16"/>
      <path class="cls-2" d="m176.25,272.25v16h-16v-14.14c1.96.22,3.55-.61,4.58-1.86h11.42Z"/>
      <rect class="cls-3" x="160.25" y="160.25" width="16" height="16"/>
      <rect class="cls-3" x="160.25" y="144.25" width="16" height="16"/>
      <rect class="cls-1" x="160.25" y="64.25" width="16" height="16"/>
      <rect class="cls-1" x="160.25" y="48.25" width="16" height="16"/>
      <rect class="cls-3" x="160.25" y="32.25" width="16" height="16"/>
      <rect class="cls-3" x="144.25" y="176.25" width="16" height="16"/>
      <rect class="cls-3" x="144.25" y="160.25" width="16" height="16"/>
      <rect class="cls-1" x="144.25" y="80.25" width="16" height="16"/>
      <rect class="cls-1" x="144.25" y="64.25" width="16" height="16"/>
      <rect class="cls-1" x="144.25" y="48.25" width="16" height="16"/>
      <rect class="cls-3" x="144.25" y="32.25" width="16" height="16"/>
      <path class="cls-1" d="m146.25,272.25c1.08,0,2.16-.02,3.23-.06.25.03.5.06.77.06h-4Z"/>
      <path class="cls-1" d="m144.25,271.86c.58.24,1.24.39,2,.39h-2v-.39Z"/>
      <rect class="cls-3" x="144.25" y="496.25" width="16" height="16"/>
      <rect class="cls-3" x="144.25" y="480.25" width="16" height="16"/>
      <rect class="cls-3" x="128.25" y="480.25" width="16" height="16"/>
      <rect class="cls-3" x="128.25" y="464.25" width="16" height="16"/>
      <rect class="cls-4" x="144.25" y="368.25" width="16" height="16"/>
      <rect class="cls-4" x="128.25" y="368.25" width="16" height="16"/>
      <rect class="cls-4" x="144.25" y="352.25" width="16" height="16"/>
      <rect class="cls-2" x="128.25" y="352.25" width="16" height="16"/>
      <rect class="cls-4" x="144.25" y="336.25" width="16" height="16"/>
      <rect class="cls-2" x="128.25" y="336.25" width="16" height="16"/>
      <rect class="cls-4" x="144.25" y="304.25" width="16" height="16"/>
      <rect class="cls-2" x="144.25" y="288.25" width="16" height="16"/>
      <path class="cls-2" d="m144.25,288.25v-16h6.06c3.17.74,6.38,1.28,9.61,1.82.11.02.22.03.33.04v14.14h-16Z"/>
      <rect class="cls-3" x="128.25" y="192.25" width="16" height="16"/>
      <rect class="cls-3" x="128.25" y="176.25" width="16" height="16"/>
      <rect class="cls-1" x="128.25" y="80.25" width="16" height="16"/>
      <rect class="cls-1" x="128.25" y="64.25" width="16" height="16"/>
      <rect class="cls-1" x="128.25" y="48.25" width="16" height="16"/>
      <rect class="cls-3" x="128.25" y="32.25" width="16" height="16"/>
      <rect class="cls-3" x="112.25" y="464.25" width="16" height="16"/>
      <rect class="cls-3" x="112.25" y="448.25" width="16" height="16"/>
      <rect class="cls-4" x="112.25" y="368.25" width="16" height="16"/>
      <rect class="cls-2" x="112.25" y="352.25" width="16" height="16"/>
      <rect class="cls-2" x="112.25" y="336.25" width="16" height="16"/>
      <rect class="cls-3" x="112.25" y="224.25" width="16" height="16"/>
      <rect class="cls-3" x="112.25" y="208.25" width="16" height="16"/>
      <rect class="cls-3" x="112.25" y="192.25" width="16" height="16"/>
      <rect class="cls-3" x="112.25" y="96.25" width="16" height="16"/>
      <rect class="cls-1" x="112.25" y="80.25" width="16" height="16"/>
      <rect class="cls-1" x="112.25" y="64.25" width="16" height="16"/>
      <rect class="cls-3" x="112.25" y="48.25" width="16" height="16"/>
      <rect class="cls-3" x="96.25" y="448.25" width="16" height="16"/>
      <rect class="cls-3" x="96.25" y="432.25" width="16" height="16"/>
      <rect class="cls-3" x="96.25" y="256.25" width="16" height="16"/>
      <rect class="cls-3" x="96.25" y="240.25" width="16" height="16"/>
      <rect class="cls-3" x="96.25" y="224.25" width="16" height="16"/>
      <rect class="cls-3" x="96.25" y="160.25" width="16" height="16"/>
      <rect class="cls-3" x="96.25" y="144.25" width="16" height="16"/>
      <rect class="cls-3" x="96.25" y="128.25" width="16" height="16"/>
      <rect class="cls-3" x="96.25" y="112.25" width="16" height="16"/>
      <rect class="cls-3" x="96.25" y="96.25" width="16" height="16"/>
      <rect class="cls-3" x="96.25" y="80.25" width="16" height="16"/>
      <rect class="cls-3" x="80.25" y="432.25" width="16" height="16"/>
      <rect class="cls-3" x="80.25" y="416.25" width="16" height="16"/>
      <rect class="cls-3" x="80.25" y="400.25" width="16" height="16"/>
      <rect class="cls-3" x="80.25" y="384.25" width="16" height="16"/>
      <rect class="cls-3" x="80.25" y="368.25" width="16" height="16"/>
      <rect class="cls-3" x="80.25" y="352.25" width="16" height="16"/>
      <rect class="cls-3" x="80.25" y="336.25" width="16" height="16"/>
      <rect class="cls-3" x="80.25" y="320.25" width="16" height="16"/>
      <rect class="cls-3" x="80.25" y="304.25" width="16" height="16"/>
      <rect class="cls-3" x="80.25" y="288.25" width="16" height="16"/>
      <rect class="cls-3" x="80.25" y="272.25" width="16" height="16"/>
      <rect class="cls-3" x="80.25" y="256.25" width="16" height="16"/>
      <rect class="cls-3" x="80.25" y="240.25" width="16" height="16"/>
      <rect class="cls-3" x="80.25" y="224.25" width="16" height="16"/>
      <rect class="cls-3" x="80.25" y="208.25" width="16" height="16"/>
      <rect class="cls-3" x="80.25" y="192.25" width="16" height="16"/>
      <rect class="cls-3" x="80.25" y="176.25" width="16" height="16"/>
      <rect class="cls-3" x="80.25" y="160.25" width="16" height="16"/>
      <rect class="cls-1" x="80.25" y="96.25" width="16" height="16"/>
      <rect class="cls-1" x="80.25" y="80.25" width="16" height="16"/>
      <rect class="cls-3" x="80.25" y="64.25" width="16" height="16"/>
      <rect class="cls-1" x="64.25" y="240.25" width="16" height="16"/>
      <rect class="cls-1" x="64.25" y="224.25" width="16" height="16"/>
      <rect class="cls-1" x="64.25" y="208.25" width="16" height="16"/>
      <rect class="cls-1" x="64.25" y="192.25" width="16" height="16"/>
      <rect class="cls-3" x="64.25" y="176.25" width="16" height="16"/>
      <rect class="cls-3" x="64.25" y="160.25" width="16" height="16"/>
      <rect class="cls-1" x="64.25" y="96.25" width="16" height="16"/>
      <rect class="cls-1" x="64.25" y="80.25" width="16" height="16"/>
      <rect class="cls-3" x="64.25" y="64.25" width="16" height="16"/>
      <rect class="cls-3" x="64.25" y="48.25" width="16" height="16"/>
      <rect class="cls-1" x="48.25" y="208.25" width="16" height="16"/>
      <rect class="cls-1" x="48.25" y="192.25" width="16" height="16"/>
      <rect class="cls-1" x="48.25" y="176.25" width="16" height="16"/>
      <rect class="cls-3" x="48.25" y="160.25" width="16" height="16"/>
      <rect class="cls-3" x="48.25" y="144.25" width="16" height="16"/>
      <rect class="cls-1" x="48.25" y="96.25" width="16" height="16"/>
      <rect class="cls-1" x="48.25" y="80.25" width="16" height="16"/>
      <rect class="cls-1" x="48.25" y="64.25" width="16" height="16"/>
      <rect class="cls-3" x="48.25" y="48.25" width="16" height="16"/>
      <rect class="cls-3" x="48.25" y="32.25" width="16" height="16"/>
      <rect class="cls-1" x="32.25" y="208.25" width="16" height="16"/>
      <rect class="cls-1" x="32.25" y="192.25" width="16" height="16"/>
      <rect class="cls-1" x="32.25" y="176.25" width="16" height="16"/>
      <rect class="cls-1" x="32.25" y="160.25" width="16" height="16"/>
      <rect class="cls-3" x="32.25" y="144.25" width="16" height="16"/>
      <rect class="cls-1" x="32.25" y="96.25" width="16" height="16"/>
      <rect class="cls-1" x="32.25" y="80.25" width="16" height="16"/>
      <rect class="cls-1" x="32.25" y="64.25" width="16" height="16"/>
      <rect class="cls-1" x="32.25" y="48.25" width="16" height="16"/>
      <rect class="cls-3" x="32.25" y="32.25" width="16" height="16"/>
      <rect class="cls-1" x="16.25" y="192.25" width="16" height="16"/>
      <rect class="cls-1" x="16.25" y="176.25" width="16" height="16"/>
      <rect class="cls-1" x="16.25" y="160.25" width="16" height="16"/>
      <rect class="cls-3" x="16.25" y="144.25" width="16" height="16"/>
      <rect class="cls-1" x="16.25" y="80.25" width="16" height="16"/>
      <rect class="cls-1" x="16.25" y="64.25" width="16" height="16"/>
      <rect class="cls-1" x="16.25" y="48.25" width="16" height="16"/>
      <rect class="cls-3" x="16.25" y="32.25" width="16" height="16"/>
      <rect class="cls-3" x=".25" y="64.25" width="16" height="16"/>
      <rect class="cls-3" x=".25" y="48.25" width="16" height="16"/>
    </g>
  </g>
</svg>