<?xml version="1.0" encoding="UTF-8"?>
<svg id="_Шар_2" data-name="Шар 2" xmlns="http://www.w3.org/2000/svg" viewBox="0 0 508.5 512.5">
  <defs>
    <style>
      .cls-1 {
        fill: #01331d;
      }

      .cls-2 {
        fill: #b7eb74;
      }

      .cls-3 {
        fill: #e42deb;
      }

      .cls-4 {
        fill: #38003a;
      }

      .cls-5 {
        fill: #53ab68;
      }

      .cls-6 {
        fill: #7b0080;
      }
    </style>
  </defs>
  <g id="_Шар_2-2" data-name="Шар 2">
    <g>
      <rect class="cls-4" x="413" y="112.25" width="15.87" height="16"/>
      <rect class="cls-4" x="413" y="96.25" width="15.87" height="16"/>
      <rect class="cls-6" x="413" y="80.25" width="15.87" height="16"/>
      <rect class="cls-6" x="413" y="64.25" width="15.87" height="16"/>
      <rect class="cls-6" x="413" y="48.25" width="15.87" height="16"/>
      <rect class="cls-6" x="413" y="32.25" width="15.87" height="16"/>
      <rect class="cls-3" x="413" y="16.25" width="15.87" height="16"/>
      <rect class="cls-4" x="397.13" y="128.25" width="15.87" height="16"/>
      <rect class="cls-4" x="397.13" y="112.25" width="15.87" height="16"/>
      <rect class="cls-6" x="397.13" y="96.25" width="15.87" height="16"/>
      <rect class="cls-6" x="397.13" y="80.25" width="15.87" height="16"/>
      <rect class="cls-6" x="397.13" y="64.25" width="15.87" height="16"/>
      <rect class="cls-3" x="397.13" y="48.25" width="15.87" height="16"/>
      <rect class="cls-3" x="397.13" y="32.25" width="15.87" height="16"/>
      <rect class="cls-3" x="397.13" y="16.25" width="15.87" height="16"/>
      <rect class="cls-2" x="381.25" y="304.25" width="15.88" height="16"/>
      <rect class="cls-2" x="381.25" y="256.25" width="15.88" height="16"/>
      <rect class="cls-2" x="381.25" y="224.25" width="15.88" height="16"/>
      <rect class="cls-4" x="381.25" y="128.25" width="15.88" height="16"/>
      <rect class="cls-4" x="381.25" y="112.25" width="15.88" height="16"/>
      <rect class="cls-6" x="381.25" y="96.25" width="15.88" height="16"/>
      <rect class="cls-6" x="381.25" y="80.25" width="15.88" height="16"/>
      <rect class="cls-6" x="381.25" y="64.25" width="15.88" height="16"/>
      <rect class="cls-3" x="381.25" y="48.25" width="15.88" height="16"/>
      <rect class="cls-3" x="381.25" y="32.25" width="15.88" height="16"/>
      <rect class="cls-5" x="365.37" y="304.25" width="15.88" height="16"/>
      <rect class="cls-5" x="365.37" y="288.25" width="15.88" height="16"/>
      <rect class="cls-5" x="365.37" y="272.25" width="15.88" height="16"/>
      <rect class="cls-5" x="365.37" y="256.25" width="15.88" height="16"/>
      <rect class="cls-5" x="365.37" y="240.25" width="15.88" height="16"/>
      <rect class="cls-5" x="365.37" y="224.25" width="15.88" height="16"/>
      <rect class="cls-5" x="365.37" y="208.25" width="15.88" height="16"/>
      <rect class="cls-5" x="365.37" y="192.25" width="15.88" height="16"/>
      <rect class="cls-4" x="365.37" y="144.25" width="15.88" height="16"/>
      <rect class="cls-4" x="365.37" y="128.25" width="15.88" height="16"/>
      <rect class="cls-4" x="365.37" y="112.25" width="15.88" height="16"/>
      <rect class="cls-4" x="365.37" y="96.25" width="15.88" height="16"/>
      <rect class="cls-6" x="365.37" y="80.25" width="15.88" height="16"/>
      <rect class="cls-6" x="365.37" y="64.25" width="15.88" height="16"/>
      <rect class="cls-6" x="365.37" y="48.25" width="15.88" height="16"/>
      <rect class="cls-6" x="365.37" y="32.25" width="15.88" height="16"/>
      <rect class="cls-3" x="365.37" y="16.25" width="15.88" height="16"/>
      <rect class="cls-5" x="349.5" y="336.25" width="15.87" height="16"/>
      <rect class="cls-5" x="349.5" y="320.25" width="15.87" height="16"/>
      <rect class="cls-5" x="349.5" y="304.25" width="15.87" height="16"/>
      <rect class="cls-2" x="349.5" y="288.25" width="15.87" height="16"/>
      <rect class="cls-5" x="349.5" y="272.25" width="15.87" height="16"/>
      <rect class="cls-5" x="349.5" y="256.25" width="15.87" height="16"/>
      <rect class="cls-5" x="349.5" y="240.25" width="15.87" height="16"/>
      <rect class="cls-2" x="349.5" y="224.25" width="15.87" height="16"/>
      <rect class="cls-5" x="349.5" y="208.25" width="15.87" height="16"/>
      <rect class="cls-5" x="349.5" y="192.25" width="15.87" height="16"/>
      <rect class="cls-1" x="349.5" y="176.25" width="15.87" height="16"/>
      <rect class="cls-4" x="349.5" y="160.25" width="15.87" height="16"/>
      <rect class="cls-4" x="349.5" y="144.25" width="15.87" height="16"/>
      <rect class="cls-4" x="349.5" y="128.25" width="15.87" height="16"/>
      <rect class="cls-4" x="349.5" y="112.25" width="15.87" height="16"/>
      <rect class="cls-6" x="349.5" y="96.25" width="15.87" height="16"/>
      <rect class="cls-6" x="349.5" y="80.25" width="15.87" height="16"/>
      <rect class="cls-6" x="349.5" y="64.25" width="15.87" height="16"/>
      <rect class="cls-3" x="349.5" y="48.25" width="15.87" height="16"/>
      <rect class="cls-3" x="349.5" y="32.25" width="15.87" height="16"/>
      <rect class="cls-5" x="333.63" y="352.25" width="15.87" height="16"/>
      <rect class="cls-5" x="333.63" y="336.25" width="15.87" height="16"/>
      <rect class="cls-2" x="333.63" y="320.25" width="15.87" height="16"/>
      <rect class="cls-5" x="333.63" y="304.25" width="15.87" height="16"/>
      <rect class="cls-5" x="333.63" y="288.25" width="15.87" height="16"/>
      <rect class="cls-5" x="333.63" y="272.25" width="15.87" height="16"/>
      <rect class="cls-2" x="333.63" y="256.25" width="15.87" height="16"/>
      <rect class="cls-5" x="333.63" y="240.25" width="15.87" height="16"/>
      <rect class="cls-5" x="333.63" y="224.25" width="15.87" height="16"/>
      <rect class="cls-5" x="333.63" y="208.25" width="15.87" height="16"/>
      <rect class="cls-5" x="333.63" y="192.25" width="15.87" height="16"/>
      <rect class="cls-1" x="333.63" y="176.25" width="15.87" height="16"/>
      <rect class="cls-4" x="333.63" y="160.25" width="15.87" height="16"/>
      <rect class="cls-4" x="333.63" y="144.25" width="15.87" height="16"/>
      <rect class="cls-4" x="333.63" y="128.25" width="15.87" height="16"/>
      <rect class="cls-4" x="333.63" y="112.25" width="15.87" height="16"/>
      <rect class="cls-4" x="333.63" y="96.25" width="15.87" height="16"/>
      <rect class="cls-6" x="333.63" y="80.25" width="15.87" height="16"/>
      <rect class="cls-6" x="333.63" y="64.25" width="15.87" height="16"/>
      <rect class="cls-3" x="333.63" y="48.25" width="15.87" height="16"/>
      <rect class="cls-3" x="333.63" y="32.25" width="15.87" height="16"/>
      <rect class="cls-5" x="317.75" y="352.25" width="15.88" height="16"/>
      <rect class="cls-5" x="317.75" y="336.25" width="15.88" height="16"/>
      <rect class="cls-5" x="317.75" y="320.25" width="15.88" height="16"/>
      <rect class="cls-5" x="317.75" y="304.25" width="15.88" height="16"/>
      <rect class="cls-2" x="317.75" y="288.25" width="15.88" height="16"/>
      <rect class="cls-5" x="317.75" y="272.25" width="15.88" height="16"/>
      <rect class="cls-5" x="317.75" y="256.25" width="15.88" height="16"/>
      <rect class="cls-5" x="317.75" y="240.25" width="15.88" height="16"/>
      <rect class="cls-2" x="317.75" y="224.25" width="15.88" height="16"/>
      <rect class="cls-5" x="317.75" y="208.25" width="15.88" height="16"/>
      <rect class="cls-5" x="317.75" y="192.25" width="15.88" height="16"/>
      <rect class="cls-1" x="317.75" y="176.25" width="15.88" height="16"/>
      <rect class="cls-4" x="317.75" y="160.25" width="15.88" height="16"/>
      <rect class="cls-4" x="317.75" y="144.25" width="15.88" height="16"/>
      <rect class="cls-4" x="317.75" y="128.25" width="15.88" height="16"/>
      <rect class="cls-4" x="317.75" y="112.25" width="15.88" height="16"/>
      <rect class="cls-6" x="317.75" y="96.25" width="15.88" height="16"/>
      <rect class="cls-6" x="317.75" y="80.25" width="15.88" height="16"/>
      <rect class="cls-6" x="317.75" y="64.25" width="15.88" height="16"/>
      <rect class="cls-6" x="317.75" y="48.25" width="15.88" height="16"/>
      <rect class="cls-6" x="317.75" y="32.25" width="15.88" height="16"/>
      <rect class="cls-3" x="317.75" y="16.25" width="15.88" height="16"/>
      <rect class="cls-5" x="301.87" y="368.25" width="15.88" height="16"/>
      <rect class="cls-5" x="301.87" y="352.25" width="15.88" height="16"/>
      <rect class="cls-5" x="301.87" y="336.25" width="15.88" height="16"/>
      <rect class="cls-2" x="301.87" y="320.25" width="15.88" height="16"/>
      <rect class="cls-5" x="301.87" y="304.25" width="15.88" height="16"/>
      <rect class="cls-5" x="301.87" y="288.25" width="15.88" height="16"/>
      <rect class="cls-5" x="301.87" y="272.25" width="15.88" height="16"/>
      <rect class="cls-2" x="301.87" y="256.25" width="15.88" height="16"/>
      <rect class="cls-5" x="301.87" y="240.25" width="15.88" height="16"/>
      <rect class="cls-5" x="301.87" y="224.25" width="15.88" height="16"/>
      <rect class="cls-5" x="301.87" y="208.25" width="15.88" height="16"/>
      <rect class="cls-1" x="301.87" y="192.25" width="15.88" height="16"/>
      <rect class="cls-1" x="301.87" y="176.25" width="15.88" height="16"/>
      <rect class="cls-4" x="301.87" y="160.25" width="15.88" height="16"/>
      <rect class="cls-4" x="301.87" y="144.25" width="15.88" height="16"/>
      <rect class="cls-4" x="301.87" y="128.25" width="15.88" height="16"/>
      <rect class="cls-4" x="301.87" y="112.25" width="15.88" height="16"/>
      <rect class="cls-6" x="301.87" y="96.25" width="15.88" height="16"/>
      <rect class="cls-6" x="301.87" y="80.25" width="15.88" height="16"/>
      <rect class="cls-6" x="301.87" y="64.25" width="15.88" height="16"/>
      <rect class="cls-3" x="301.87" y="48.25" width="15.88" height="16"/>
      <rect class="cls-3" x="301.87" y="32.25" width="15.88" height="16"/>
      <rect class="cls-5" x="286" y="368.25" width="15.87" height="16"/>
      <rect class="cls-2" x="286" y="352.25" width="15.87" height="16"/>
      <rect class="cls-5" x="286" y="336.25" width="15.87" height="16"/>
      <rect class="cls-5" x="286" y="320.25" width="15.87" height="16"/>
      <rect class="cls-5" x="286" y="304.25" width="15.87" height="16"/>
      <rect class="cls-2" x="286" y="288.25" width="15.87" height="16"/>
      <rect class="cls-5" x="286" y="272.25" width="15.87" height="16"/>
      <rect class="cls-5" x="286" y="256.25" width="15.87" height="16"/>
      <rect class="cls-5" x="286" y="240.25" width="15.87" height="16"/>
      <rect class="cls-2" x="286" y="224.25" width="15.87" height="16"/>
      <rect class="cls-5" x="286" y="208.25" width="15.87" height="16"/>
      <rect class="cls-1" x="286" y="192.25" width="15.87" height="16"/>
      <rect class="cls-1" x="286" y="176.25" width="15.87" height="16"/>
      <rect class="cls-4" x="286" y="160.25" width="15.87" height="16"/>
      <rect class="cls-4" x="286" y="144.25" width="15.87" height="16"/>
      <rect class="cls-4" x="286" y="128.25" width="15.87" height="16"/>
      <rect class="cls-4" x="286" y="112.25" width="15.87" height="16"/>
      <rect class="cls-4" x="286" y="96.25" width="15.87" height="16"/>
      <rect class="cls-6" x="286" y="80.25" width="15.87" height="16"/>
      <rect class="cls-6" x="286" y="64.25" width="15.87" height="16"/>
      <rect class="cls-6" x="286" y="48.25" width="15.87" height="16"/>
      <rect class="cls-6" x="286" y="32.25" width="15.87" height="16"/>
      <rect class="cls-3" x="286" y="16.25" width="15.87" height="16"/>
      <rect class="cls-5" x="270.13" y="368.25" width="15.87" height="16"/>
      <rect class="cls-5" x="270.13" y="352.25" width="15.87" height="16"/>
      <rect class="cls-5" x="270.13" y="336.25" width="15.87" height="16"/>
      <rect class="cls-2" x="270.13" y="320.25" width="15.87" height="16"/>
      <rect class="cls-5" x="270.13" y="304.25" width="15.87" height="16"/>
      <rect class="cls-5" x="270.13" y="288.25" width="15.87" height="16"/>
      <rect class="cls-5" x="270.13" y="272.25" width="15.87" height="16"/>
      <rect class="cls-2" x="270.13" y="256.25" width="15.87" height="16"/>
      <rect class="cls-5" x="270.13" y="240.25" width="15.87" height="16"/>
      <rect class="cls-5" x="270.13" y="224.25" width="15.87" height="16"/>
      <rect class="cls-5" x="270.13" y="208.25" width="15.87" height="16"/>
      <rect class="cls-1" x="270.13" y="192.25" width="15.87" height="16"/>
      <rect class="cls-1" x="270.13" y="176.25" width="15.87" height="16"/>
      <rect class="cls-4" x="270.13" y="160.25" width="15.87" height="16"/>
      <rect class="cls-4" x="270.13" y="144.25" width="15.87" height="16"/>
      <rect class="cls-4" x="270.13" y="128.25" width="15.87" height="16"/>
      <rect class="cls-4" x="270.13" y="112.25" width="15.87" height="16"/>
      <rect class="cls-6" x="270.13" y="96.25" width="15.87" height="16"/>
      <rect class="cls-6" x="270.13" y="80.25" width="15.87" height="16"/>
      <rect class="cls-6" x="270.13" y="64.25" width="15.87" height="16"/>
      <rect class="cls-3" x="270.13" y="48.25" width="15.87" height="16"/>
      <rect class="cls-3" x="270.13" y="32.25" width="15.87" height="16"/>
      <rect class="cls-5" x="254.25" y="496.25" width="15.88" height="16"/>
      <rect class="cls-5" x="254.25" y="480.25" width="15.88" height="16"/>
      <rect class="cls-5" x="254.25" y="464.25" width="15.88" height="16"/>
      <rect class="cls-5" x="254.25" y="448.25" width="15.88" height="16"/>
      <rect class="cls-5" x="254.25" y="432.25" width="15.88" height="16"/>
      <rect class="cls-5" x="254.25" y="416.25" width="15.88" height="16"/>
      <rect class="cls-5" x="254.25" y="400.25" width="15.88" height="16"/>
      <rect class="cls-5" x="254.25" y="384.25" width="15.88" height="16"/>
      <rect class="cls-5" x="254.25" y="368.25" width="15.88" height="16"/>
      <rect class="cls-5" x="254.25" y="352.25" width="15.88" height="16"/>
      <rect class="cls-5" x="254.25" y="336.25" width="15.88" height="16"/>
      <rect class="cls-5" x="254.25" y="320.25" width="15.88" height="16"/>
      <rect class="cls-5" x="254.25" y="304.25" width="15.88" height="16"/>
      <rect class="cls-2" x="254.25" y="288.25" width="15.88" height="16"/>
      <rect class="cls-5" x="254.25" y="272.25" width="15.88" height="16"/>
      <rect class="cls-5" x="254.25" y="256.25" width="15.88" height="16"/>
      <rect class="cls-5" x="254.25" y="240.25" width="15.88" height="16"/>
      <rect class="cls-2" x="254.25" y="224.25" width="15.88" height="16"/>
      <rect class="cls-5" x="254.25" y="208.25" width="15.88" height="16"/>
      <rect class="cls-1" x="254.25" y="192.25" width="15.88" height="16"/>
      <rect class="cls-1" x="254.25" y="176.25" width="15.88" height="16"/>
      <rect class="cls-4" x="254.25" y="160.25" width="15.88" height="16"/>
      <rect class="cls-4" x="254.25" y="144.25" width="15.88" height="16"/>
      <rect class="cls-4" x="254.25" y="128.25" width="15.88" height="16"/>
      <rect class="cls-4" x="254.25" y="112.25" width="15.88" height="16"/>
      <rect class="cls-6" x="254.25" y="96.25" width="15.88" height="16"/>
      <rect class="cls-6" x="254.25" y="80.25" width="15.88" height="16"/>
      <rect class="cls-6" x="254.25" y="64.25" width="15.88" height="16"/>
      <rect class="cls-3" x="254.25" y="48.25" width="15.88" height="16"/>
      <rect class="cls-3" x="254.25" y="32.25" width="15.88" height="16"/>
      <rect class="cls-1" x="238.37" y="496.25" width="15.88" height="16"/>
      <rect class="cls-1" x="238.37" y="480.25" width="15.88" height="16"/>
      <rect class="cls-1" x="238.37" y="464.25" width="15.88" height="16"/>
      <rect class="cls-1" x="238.37" y="448.25" width="15.88" height="16"/>
      <rect class="cls-1" x="238.37" y="432.25" width="15.88" height="16"/>
      <rect class="cls-1" x="238.37" y="416.25" width="15.88" height="16"/>
      <rect class="cls-1" x="238.37" y="400.25" width="15.88" height="16"/>
      <rect class="cls-1" x="238.37" y="384.25" width="15.88" height="16"/>
      <rect class="cls-1" x="238.37" y="368.25" width="15.88" height="16"/>
      <rect class="cls-5" x="238.37" y="352.25" width="15.88" height="16"/>
      <rect class="cls-5" x="238.37" y="336.25" width="15.88" height="16"/>
      <rect class="cls-5" x="238.37" y="320.25" width="15.88" height="16"/>
      <rect class="cls-5" x="238.37" y="304.25" width="15.88" height="16"/>
      <rect class="cls-5" x="238.37" y="288.25" width="15.88" height="16"/>
      <rect class="cls-5" x="238.37" y="272.25" width="15.88" height="16"/>
      <rect class="cls-5" x="238.37" y="256.25" width="15.88" height="16"/>
      <rect class="cls-5" x="238.37" y="240.25" width="15.88" height="16"/>
      <rect class="cls-5" x="238.37" y="224.25" width="15.88" height="16"/>
      <rect class="cls-5" x="238.37" y="208.25" width="15.88" height="16"/>
      <rect class="cls-1" x="238.37" y="192.25" width="15.88" height="16"/>
      <rect class="cls-1" x="238.37" y="176.25" width="15.88" height="16"/>
      <rect class="cls-4" x="238.37" y="160.25" width="15.88" height="16"/>
      <rect class="cls-4" x="238.37" y="144.25" width="15.88" height="16"/>
      <rect class="cls-4" x="238.37" y="128.25" width="15.88" height="16"/>
      <rect class="cls-4" x="238.37" y="112.25" width="15.88" height="16"/>
      <rect class="cls-4" x="238.37" y="96.25" width="15.88" height="16"/>
      <rect class="cls-6" x="238.37" y="80.25" width="15.88" height="16"/>
      <rect class="cls-6" x="238.37" y="64.25" width="15.88" height="16"/>
      <rect class="cls-6" x="238.37" y="48.25" width="15.88" height="16"/>
      <rect class="cls-6" x="238.37" y="32.25" width="15.88" height="16"/>
      <rect class="cls-3" x="238.37" y="16.25" width="15.88" height="16"/>
      <rect class="cls-1" x="222.5" y="368.25" width="15.87" height="16"/>
      <rect class="cls-1" x="222.5" y="352.25" width="15.87" height="16"/>
      <rect class="cls-1" x="222.5" y="336.25" width="15.87" height="16"/>
      <rect class="cls-1" x="222.5" y="320.25" width="15.87" height="16"/>
      <rect class="cls-1" x="222.5" y="304.25" width="15.87" height="16"/>
      <rect class="cls-1" x="222.5" y="288.25" width="15.87" height="16"/>
      <rect class="cls-1" x="222.5" y="272.25" width="15.87" height="16"/>
      <rect class="cls-1" x="222.5" y="256.25" width="15.87" height="16"/>
      <rect class="cls-1" x="222.5" y="240.25" width="15.87" height="16"/>
      <rect class="cls-1" x="222.5" y="224.25" width="15.87" height="16"/>
      <rect class="cls-1" x="222.5" y="208.25" width="15.87" height="16"/>
      <rect class="cls-1" x="222.5" y="192.25" width="15.87" height="16"/>
      <rect class="cls-1" x="222.5" y="176.25" width="15.87" height="16"/>
      <rect class="cls-4" x="222.5" y="160.25" width="15.87" height="16"/>
      <rect class="cls-4" x="222.5" y="144.25" width="15.87" height="16"/>
      <rect class="cls-4" x="222.5" y="128.25" width="15.87" height="16"/>
      <rect class="cls-4" x="222.5" y="112.25" width="15.87" height="16"/>
      <rect class="cls-6" x="222.5" y="96.25" width="15.87" height="16"/>
      <rect class="cls-6" x="222.5" y="80.25" width="15.87" height="16"/>
      <rect class="cls-6" x="222.5" y="64.25" width="15.87" height="16"/>
      <rect class="cls-3" x="222.5" y="48.25" width="15.87" height="16"/>
      <rect class="cls-3" x="222.5" y="32.25" width="15.87" height="16"/>
      <rect class="cls-1" x="206.63" y="368.25" width="15.87" height="16"/>
      <rect class="cls-5" x="206.63" y="352.25" width="15.87" height="16"/>
      <rect class="cls-1" x="206.63" y="336.25" width="15.87" height="16"/>
      <rect class="cls-1" x="206.63" y="320.25" width="15.87" height="16"/>
      <rect class="cls-1" x="206.63" y="304.25" width="15.87" height="16"/>
      <rect class="cls-1" x="206.63" y="288.25" width="15.87" height="16"/>
      <rect class="cls-1" x="206.63" y="272.25" width="15.87" height="16"/>
      <rect class="cls-1" x="206.63" y="256.25" width="15.87" height="16"/>
      <rect class="cls-1" x="206.63" y="240.25" width="15.87" height="16"/>
      <rect class="cls-1" x="206.63" y="224.25" width="15.87" height="16"/>
      <rect class="cls-1" x="206.63" y="208.25" width="15.87" height="16"/>
      <rect class="cls-5" x="206.63" y="192.25" width="15.87" height="16"/>
      <rect class="cls-1" x="206.63" y="176.25" width="15.87" height="16"/>
      <rect class="cls-4" x="206.63" y="160.25" width="15.87" height="16"/>
      <rect class="cls-4" x="206.63" y="144.25" width="15.87" height="16"/>
      <rect class="cls-4" x="206.63" y="128.25" width="15.87" height="16"/>
      <rect class="cls-4" x="206.63" y="112.25" width="15.87" height="16"/>
      <rect class="cls-4" x="206.63" y="96.25" width="15.87" height="16"/>
      <rect class="cls-6" x="206.63" y="80.25" width="15.87" height="16"/>
      <rect class="cls-6" x="206.63" y="64.25" width="15.87" height="16"/>
      <rect class="cls-6" x="206.63" y="48.25" width="15.87" height="16"/>
      <rect class="cls-6" x="206.63" y="32.25" width="15.87" height="16"/>
      <rect class="cls-3" x="206.63" y="16.25" width="15.87" height="16"/>
      <rect class="cls-1" x="190.75" y="368.25" width="15.88" height="16"/>
      <rect class="cls-1" x="190.75" y="352.25" width="15.88" height="16"/>
      <rect class="cls-1" x="190.75" y="336.25" width="15.88" height="16"/>
      <rect class="cls-5" x="190.75" y="320.25" width="15.88" height="16"/>
      <rect class="cls-1" x="190.75" y="304.25" width="15.88" height="16"/>
      <rect class="cls-5" x="190.75" y="288.25" width="15.88" height="16"/>
      <rect class="cls-1" x="190.75" y="272.25" width="15.88" height="16"/>
      <rect class="cls-5" x="190.75" y="256.25" width="15.88" height="16"/>
      <rect class="cls-1" x="190.75" y="240.25" width="15.88" height="16"/>
      <rect class="cls-5" x="190.75" y="224.25" width="15.88" height="16"/>
      <rect class="cls-1" x="190.75" y="208.25" width="15.88" height="16"/>
      <rect class="cls-1" x="190.75" y="192.25" width="15.88" height="16"/>
      <rect class="cls-1" x="190.75" y="176.25" width="15.88" height="16"/>
      <rect class="cls-4" x="190.75" y="160.25" width="15.88" height="16"/>
      <rect class="cls-4" x="190.75" y="144.25" width="15.88" height="16"/>
      <rect class="cls-4" x="190.75" y="128.25" width="15.88" height="16"/>
      <rect class="cls-4" x="190.75" y="112.25" width="15.88" height="16"/>
      <rect class="cls-6" x="190.75" y="96.25" width="15.88" height="16"/>
      <rect class="cls-6" x="190.75" y="80.25" width="15.88" height="16"/>
      <rect class="cls-6" x="190.75" y="64.25" width="15.88" height="16"/>
      <rect class="cls-3" x="190.75" y="48.25" width="15.88" height="16"/>
      <rect class="cls-3" x="190.75" y="32.25" width="15.88" height="16"/>
      <rect class="cls-3" x="190.75" y="16.25" width="15.88" height="16"/>
      <rect class="cls-1" x="174.87" y="352.25" width="15.88" height="16"/>
      <rect class="cls-1" x="174.87" y="336.25" width="15.88" height="16"/>
      <rect class="cls-1" x="174.87" y="320.25" width="15.88" height="16"/>
      <rect class="cls-1" x="174.87" y="304.25" width="15.88" height="16"/>
      <rect class="cls-1" x="174.87" y="288.25" width="15.88" height="16"/>
      <rect class="cls-1" x="174.87" y="272.25" width="15.88" height="16"/>
      <rect class="cls-1" x="174.87" y="256.25" width="15.88" height="16"/>
      <rect class="cls-1" x="174.87" y="240.25" width="15.88" height="16"/>
      <rect class="cls-1" x="174.87" y="224.25" width="15.88" height="16"/>
      <rect class="cls-1" x="174.87" y="208.25" width="15.88" height="16"/>
      <rect class="cls-1" x="174.87" y="192.25" width="15.88" height="16"/>
      <rect class="cls-1" x="174.87" y="176.25" width="15.88" height="16"/>
      <rect class="cls-4" x="174.87" y="160.25" width="15.88" height="16"/>
      <rect class="cls-4" x="174.87" y="144.25" width="15.88" height="16"/>
      <rect class="cls-4" x="174.87" y="128.25" width="15.88" height="16"/>
      <rect class="cls-4" x="174.87" y="112.25" width="15.88" height="16"/>
      <rect class="cls-6" x="174.87" y="96.25" width="15.88" height="16"/>
      <rect class="cls-6" x="174.87" y="80.25" width="15.88" height="16"/>
      <rect class="cls-6" x="174.87" y="64.25" width="15.88" height="16"/>
      <rect class="cls-3" x="174.87" y="48.25" width="15.88" height="16"/>
      <rect class="cls-3" x="174.87" y="32.25" width="15.88" height="16"/>
      <rect class="cls-1" x="159" y="352.25" width="15.87" height="16"/>
      <rect class="cls-1" x="159" y="336.25" width="15.87" height="16"/>
      <rect class="cls-1" x="159" y="320.25" width="15.87" height="16"/>
      <rect class="cls-5" x="159" y="304.25" width="15.87" height="16"/>
      <rect class="cls-1" x="159" y="288.25" width="15.87" height="16"/>
      <rect class="cls-5" x="159" y="272.25" width="15.87" height="16"/>
      <rect class="cls-1" x="159" y="256.25" width="15.87" height="16"/>
      <rect class="cls-5" x="159" y="240.25" width="15.87" height="16"/>
      <rect class="cls-1" x="159" y="224.25" width="15.87" height="16"/>
      <rect class="cls-5" x="159" y="208.25" width="15.87" height="16"/>
      <rect class="cls-1" x="159" y="192.25" width="15.87" height="16"/>
      <rect class="cls-1" x="159" y="176.25" width="15.87" height="16"/>
      <rect class="cls-4" x="159" y="160.25" width="15.87" height="16"/>
      <rect class="cls-4" x="159" y="144.25" width="15.87" height="16"/>
      <rect class="cls-4" x="159" y="128.25" width="15.87" height="16"/>
      <rect class="cls-4" x="159" y="112.25" width="15.87" height="16"/>
      <rect class="cls-4" x="159" y="96.25" width="15.87" height="16"/>
      <rect class="cls-6" x="159" y="80.25" width="15.87" height="16"/>
      <rect class="cls-6" x="159" y="64.25" width="15.87" height="16"/>
      <rect class="cls-6" x="159" y="48.25" width="15.87" height="16"/>
      <rect class="cls-6" x="159" y="32.25" width="15.87" height="16"/>
      <rect class="cls-3" x="159" y="16.25" width="15.87" height="16"/>
      <rect class="cls-1" x="143.13" y="320.25" width="15.87" height="16"/>
      <rect class="cls-1" x="143.13" y="304.25" width="15.87" height="16"/>
      <rect class="cls-1" x="143.13" y="288.25" width="15.87" height="16"/>
      <rect class="cls-1" x="143.13" y="272.25" width="15.87" height="16"/>
      <rect class="cls-1" x="143.13" y="256.25" width="15.87" height="16"/>
      <rect class="cls-1" x="143.13" y="240.25" width="15.87" height="16"/>
      <rect class="cls-1" x="143.13" y="224.25" width="15.87" height="16"/>
      <rect class="cls-1" x="143.13" y="208.25" width="15.87" height="16"/>
      <rect class="cls-1" x="143.13" y="192.25" width="15.87" height="16"/>
      <rect class="cls-4" x="143.13" y="160.25" width="15.87" height="16"/>
      <rect class="cls-4" x="143.13" y="144.25" width="15.87" height="16"/>
      <rect class="cls-4" x="143.13" y="128.25" width="15.87" height="16"/>
      <rect class="cls-4" x="143.13" y="112.25" width="15.87" height="16"/>
      <rect class="cls-6" x="143.13" y="96.25" width="15.87" height="16"/>
      <rect class="cls-6" x="143.13" y="80.25" width="15.87" height="16"/>
      <rect class="cls-6" x="143.13" y="64.25" width="15.87" height="16"/>
      <rect class="cls-3" x="143.13" y="48.25" width="15.87" height="16"/>
      <rect class="cls-3" x="143.13" y="32.25" width="15.87" height="16"/>
      <rect class="cls-5" x="127.25" y="304.25" width="15.88" height="16"/>
      <rect class="cls-5" x="127.25" y="256.25" width="15.88" height="16"/>
      <rect class="cls-5" x="127.25" y="224.25" width="15.88" height="16"/>
      <rect class="cls-4" x="127.25" y="160.25" width="15.88" height="16"/>
      <rect class="cls-4" x="127.25" y="144.25" width="15.88" height="16"/>
      <rect class="cls-4" x="127.25" y="128.25" width="15.88" height="16"/>
      <rect class="cls-4" x="127.25" y="112.25" width="15.88" height="16"/>
      <rect class="cls-6" x="127.25" y="96.25" width="15.88" height="16"/>
      <rect class="cls-6" x="127.25" y="80.25" width="15.88" height="16"/>
      <rect class="cls-6" x="127.25" y="64.25" width="15.88" height="16"/>
      <rect class="cls-6" x="127.25" y="48.25" width="15.88" height="16"/>
      <rect class="cls-6" x="127.25" y="32.25" width="15.88" height="16"/>
      <rect class="cls-3" x="127.25" y="16.25" width="15.88" height="16"/>
      <rect class="cls-4" x="111.37" y="144.25" width="15.88" height="16"/>
      <rect class="cls-4" x="111.37" y="128.25" width="15.88" height="16"/>
      <rect class="cls-4" x="111.37" y="112.25" width="15.88" height="16"/>
      <rect class="cls-4" x="111.37" y="96.25" width="15.88" height="16"/>
      <rect class="cls-6" x="111.37" y="80.25" width="15.88" height="16"/>
      <rect class="cls-6" x="111.37" y="64.25" width="15.88" height="16"/>
      <rect class="cls-3" x="111.37" y="48.25" width="15.88" height="16"/>
      <rect class="cls-3" x="111.37" y="32.25" width="15.88" height="16"/>
      <rect class="cls-3" x="111.37" y="16.25" width="15.88" height="16"/>
      <rect class="cls-4" x="95.5" y="128.25" width="15.87" height="16"/>
      <rect class="cls-4" x="95.5" y="112.25" width="15.87" height="16"/>
      <rect class="cls-6" x="95.5" y="96.25" width="15.87" height="16"/>
      <rect class="cls-6" x="95.5" y="80.25" width="15.87" height="16"/>
      <rect class="cls-6" x="95.5" y="64.25" width="15.87" height="16"/>
      <rect class="cls-3" x="95.5" y="48.25" width="15.87" height="16"/>
      <rect class="cls-3" x="95.5" y="32.25" width="15.87" height="16"/>
      <rect class="cls-4" x="79.63" y="112.25" width="15.87" height="16"/>
      <rect class="cls-4" x="79.63" y="96.25" width="15.87" height="16"/>
      <rect class="cls-6" x="79.63" y="80.25" width="15.87" height="16"/>
      <rect class="cls-6" x="79.63" y="64.25" width="15.87" height="16"/>
      <rect class="cls-6" x="79.63" y="48.25" width="15.87" height="16"/>
      <rect class="cls-6" x="79.63" y="32.25" width="15.87" height="16"/>
      <rect class="cls-3" x="79.63" y="16.25" width="15.87" height="16"/>
    </g>
  </g>
</svg>