<?xml version="1.0" encoding="UTF-8"?>
<svg id="_Шар_2" data-name="Шар 2" xmlns="http://www.w3.org/2000/svg" viewBox="0 0 512.5 512.5">
  <defs>
    <style>
      .cls-1 {
        fill: #ffebbe;
      }

      .cls-2 {
        fill: #ffc600;
      }

      .cls-3 {
        fill: #b7eb74;
      }

      .cls-4 {
        fill: #402100;
      }
    </style>
  </defs>
  <g id="_Шар_14" data-name="Шар 14">
    <g>
      <rect class="cls-3" x="448.25" y="176.25" width="16" height="16"/>
      <rect class="cls-3" x="448.25" y="160.25" width="16" height="16"/>
      <rect class="cls-4" x="432.25" y="400.25" width="16" height="16"/>
      <rect class="cls-3" x="432.25" y="192.25" width="16" height="16"/>
      <rect class="cls-3" x="432.25" y="176.25" width="16" height="16"/>
      <rect class="cls-3" x="432.25" y="160.25" width="16" height="16"/>
      <rect class="cls-4" x="416.25" y="416.25" width="16" height="16"/>
      <rect class="cls-4" x="416.25" y="400.25" width="16" height="16"/>
      <rect class="cls-4" x="416.25" y="384.25" width="16" height="16"/>
      <rect class="cls-3" x="416.25" y="192.25" width="16" height="16"/>
      <rect class="cls-3" x="416.25" y="176.25" width="16" height="16"/>
      <rect class="cls-4" x="400.25" y="416.25" width="16" height="16"/>
      <rect class="cls-4" x="400.25" y="400.25" width="16" height="16"/>
      <rect class="cls-2" x="400.25" y="384.25" width="16" height="16"/>
      <rect class="cls-1" x="400.25" y="368.25" width="16" height="16"/>
      <rect class="cls-1" x="400.25" y="352.25" width="16" height="16"/>
      <rect class="cls-1" x="400.25" y="336.25" width="16" height="16"/>
      <rect class="cls-1" x="400.25" y="320.25" width="16" height="16"/>
      <rect class="cls-1" x="400.25" y="304.25" width="16" height="16"/>
      <rect class="cls-1" x="400.25" y="288.25" width="16" height="16"/>
      <rect class="cls-1" x="400.25" y="272.25" width="16" height="16"/>
      <rect class="cls-1" x="400.25" y="256.25" width="16" height="16"/>
      <rect class="cls-1" x="400.25" y="240.25" width="16" height="16"/>
      <rect class="cls-1" x="400.25" y="224.25" width="16" height="16"/>
      <rect class="cls-1" x="400.25" y="208.25" width="16" height="16"/>
      <rect class="cls-1" x="400.25" y="192.25" width="16" height="16"/>
      <rect class="cls-4" x="384.25" y="416.25" width="16" height="16"/>
      <rect class="cls-2" x="384.25" y="400.25" width="16" height="16"/>
      <rect class="cls-4" x="384.25" y="384.25" width="16" height="16"/>
      <rect class="cls-3" x="384.25" y="192.25" width="16" height="16"/>
      <rect class="cls-3" x="384.25" y="176.25" width="16" height="16"/>
      <rect class="cls-4" x="368.25" y="400.25" width="16" height="16"/>
      <rect class="cls-3" x="368.25" y="192.25" width="16" height="16"/>
      <rect class="cls-3" x="368.25" y="176.25" width="16" height="16"/>
      <rect class="cls-3" x="368.25" y="160.25" width="16" height="16"/>
      <rect class="cls-3" x="352.25" y="176.25" width="16" height="16"/>
      <rect class="cls-3" x="352.25" y="160.25" width="16" height="16"/>
      <rect class="cls-3" x="336.25" y="112.25" width="16" height="16"/>
      <rect class="cls-3" x="336.25" y="96.25" width="16" height="16"/>
      <rect class="cls-4" x="320.25" y="384.25" width="16" height="16"/>
      <rect class="cls-3" x="320.25" y="128.25" width="16" height="16"/>
      <rect class="cls-3" x="320.25" y="112.25" width="16" height="16"/>
      <rect class="cls-3" x="320.25" y="96.25" width="16" height="16"/>
      <rect class="cls-4" x="304.25" y="400.25" width="16" height="16"/>
      <rect class="cls-4" x="304.25" y="384.25" width="16" height="16"/>
      <rect class="cls-4" x="304.25" y="368.25" width="16" height="16"/>
      <rect class="cls-3" x="304.25" y="128.25" width="16" height="16"/>
      <rect class="cls-3" x="304.25" y="112.25" width="16" height="16"/>
      <rect class="cls-4" x="288.25" y="400.25" width="16" height="16"/>
      <rect class="cls-4" x="288.25" y="384.25" width="16" height="16"/>
      <rect class="cls-2" x="288.25" y="368.25" width="16" height="16"/>
      <rect class="cls-1" x="288.25" y="352.25" width="16" height="16"/>
      <rect class="cls-1" x="288.25" y="336.25" width="16" height="16"/>
      <rect class="cls-1" x="288.25" y="320.25" width="16" height="16"/>
      <rect class="cls-1" x="288.25" y="304.25" width="16" height="16"/>
      <rect class="cls-1" x="288.25" y="288.25" width="16" height="16"/>
      <rect class="cls-1" x="288.25" y="272.25" width="16" height="16"/>
      <rect class="cls-1" x="288.25" y="256.25" width="16" height="16"/>
      <rect class="cls-1" x="288.25" y="240.25" width="16" height="16"/>
      <rect class="cls-1" x="288.25" y="224.25" width="16" height="16"/>
      <rect class="cls-1" x="288.25" y="208.25" width="16" height="16"/>
      <rect class="cls-1" x="288.25" y="192.25" width="16" height="16"/>
      <rect class="cls-1" x="288.25" y="176.25" width="16" height="16"/>
      <rect class="cls-1" x="288.25" y="160.25" width="16" height="16"/>
      <rect class="cls-1" x="288.25" y="144.25" width="16" height="16"/>
      <rect class="cls-1" x="288.25" y="128.25" width="16" height="16"/>
      <rect class="cls-4" x="272.25" y="400.25" width="16" height="16"/>
      <rect class="cls-2" x="272.25" y="384.25" width="16" height="16"/>
      <rect class="cls-4" x="272.25" y="368.25" width="16" height="16"/>
      <rect class="cls-3" x="272.25" y="128.25" width="16" height="16"/>
      <rect class="cls-3" x="272.25" y="112.25" width="16" height="16"/>
      <rect class="cls-4" x="256.25" y="384.25" width="16" height="16"/>
      <rect class="cls-3" x="256.25" y="192.25" width="16" height="16"/>
      <rect class="cls-3" x="256.25" y="176.25" width="16" height="16"/>
      <rect class="cls-3" x="256.25" y="128.25" width="16" height="16"/>
      <rect class="cls-3" x="256.25" y="112.25" width="16" height="16"/>
      <rect class="cls-3" x="256.25" y="96.25" width="16" height="16"/>
      <rect class="cls-4" x="240.25" y="416.25" width="16" height="16"/>
      <rect class="cls-3" x="240.25" y="208.25" width="16" height="16"/>
      <rect class="cls-3" x="240.25" y="192.25" width="16" height="16"/>
      <rect class="cls-3" x="240.25" y="176.25" width="16" height="16"/>
      <rect class="cls-3" x="240.25" y="112.25" width="16" height="16"/>
      <rect class="cls-3" x="240.25" y="96.25" width="16" height="16"/>
      <rect class="cls-4" x="224.25" y="416.25" width="16" height="16"/>
      <rect class="cls-4" x="224.25" y="400.25" width="16" height="16"/>
      <rect class="cls-3" x="224.25" y="208.25" width="16" height="16"/>
      <rect class="cls-3" x="224.25" y="192.25" width="16" height="16"/>
      <rect class="cls-4" x="224.25" y="432.25" width="16" height="16"/>
      <rect class="cls-4" x="208.25" y="416.25" width="16" height="16"/>
      <rect class="cls-2" x="208.25" y="400.25" width="16" height="16"/>
      <rect class="cls-1" x="208.25" y="384.25" width="16" height="16"/>
      <rect class="cls-1" x="208.25" y="368.25" width="16" height="16"/>
      <rect class="cls-1" x="208.25" y="352.25" width="16" height="16"/>
      <rect class="cls-1" x="208.25" y="336.25" width="16" height="16"/>
      <rect class="cls-1" x="208.25" y="320.25" width="16" height="16"/>
      <rect class="cls-1" x="208.25" y="304.25" width="16" height="16"/>
      <rect class="cls-1" x="208.25" y="288.25" width="16" height="16"/>
      <rect class="cls-1" x="208.25" y="272.25" width="16" height="16"/>
      <rect class="cls-1" x="208.25" y="256.25" width="16" height="16"/>
      <rect class="cls-1" x="208.25" y="240.25" width="16" height="16"/>
      <rect class="cls-1" x="208.25" y="224.25" width="16" height="16"/>
      <rect class="cls-1" x="208.25" y="208.25" width="16" height="16"/>
      <path class="cls-1" d="m212.69,460.82c-.66-.19-.18-1.07,0,0h0Z"/>
      <path class="cls-1" d="m208.25,448.25h16v.67c-4.91-.26-9.82-.87-14.72-.29-.44.05-.87.15-1.28.28v-.66Z"/>
      <rect class="cls-4" x="208.25" y="432.25" width="16" height="16"/>
      <rect class="cls-4" x="192.25" y="432.25" width="16" height="16"/>
      <rect class="cls-2" x="192.25" y="416.25" width="16" height="16"/>
      <rect class="cls-4" x="192.25" y="400.25" width="16" height="16"/>
      <rect class="cls-3" x="192.25" y="208.25" width="16" height="16"/>
      <rect class="cls-3" x="192.25" y="192.25" width="16" height="16"/>
      <rect class="cls-3" x="192.25" y="80.25" width="16" height="16"/>
      <rect class="cls-3" x="192.25" y="64.25" width="16" height="16"/>
      <path class="cls-4" d="m180.89,474.74c-.02.07-.04.14-.05.21-.08-.01-.16-.03-.24-.05.1-.05.19-.1.29-.16Z"/>
      <rect class="cls-4" x="176.25" y="416.25" width="16" height="16"/>
      <rect class="cls-4" x="160.25" y="384.25" width="16" height="16"/>
      <rect class="cls-4" x="176.25" y="368.25" width="16" height="16"/>
      <rect class="cls-4" x="160.25" y="368.25" width="16" height="16"/>
      <rect class="cls-4" x="160.25" y="352.25" width="16" height="16"/>
      <rect class="cls-3" x="176.25" y="208.25" width="16" height="16"/>
      <rect class="cls-3" x="176.25" y="192.25" width="16" height="16"/>
      <rect class="cls-3" x="160.25" y="192.25" width="16" height="16"/>
      <rect class="cls-3" x="176.25" y="176.25" width="16" height="16"/>
      <rect class="cls-3" x="160.25" y="176.25" width="16" height="16"/>
      <rect class="cls-3" x="176.25" y="96.25" width="16" height="16"/>
      <rect class="cls-3" x="160.25" y="96.25" width="16" height="16"/>
      <rect class="cls-3" x="176.25" y="80.25" width="16" height="16"/>
      <rect class="cls-3" x="160.25" y="80.25" width="16" height="16"/>
      <rect class="cls-3" x="176.25" y="64.25" width="16" height="16"/>
      <rect class="cls-4" x="144.25" y="384.25" width="16" height="16"/>
      <rect class="cls-4" x="144.25" y="368.25" width="16" height="16"/>
      <rect class="cls-2" x="144.25" y="352.25" width="16" height="16"/>
      <rect class="cls-1" x="144.25" y="336.25" width="16" height="16"/>
      <rect class="cls-1" x="144.25" y="320.25" width="16" height="16"/>
      <rect class="cls-1" x="144.25" y="304.25" width="16" height="16"/>
      <rect class="cls-1" x="144.25" y="288.25" width="16" height="16"/>
      <rect class="cls-1" x="144.25" y="272.25" width="16" height="16"/>
      <rect class="cls-1" x="144.25" y="256.25" width="16" height="16"/>
      <rect class="cls-1" x="144.25" y="240.25" width="16" height="16"/>
      <rect class="cls-1" x="144.25" y="224.25" width="16" height="16"/>
      <rect class="cls-1" x="144.25" y="208.25" width="16" height="16"/>
      <rect class="cls-1" x="144.25" y="192.25" width="16" height="16"/>
      <rect class="cls-1" x="144.25" y="176.25" width="16" height="16"/>
      <rect class="cls-1" x="144.25" y="160.25" width="16" height="16"/>
      <rect class="cls-1" x="144.25" y="144.25" width="16" height="16"/>
      <rect class="cls-1" x="144.25" y="128.25" width="16" height="16"/>
      <rect class="cls-1" x="144.25" y="112.25" width="16" height="16"/>
      <rect class="cls-1" x="144.25" y="96.25" width="16" height="16"/>
      <path class="cls-1" d="m147.45,410.54l1.26.03c-.22.17-.42.32-.63.5-.11-.11-.22-.22-.34-.32-.1-.08-.19-.14-.29-.21Z"/>
      <path class="cls-4" d="m146.1,461.81h-.04.04Z"/>
      <path class="cls-1" d="m144.59,400.5c-.12,0-.23.01-.34.02v-.27h16v.84c-5.21-.31-10.43-.56-15.66-.59Z"/>
      <rect class="cls-4" x="128.25" y="384.25" width="16" height="16"/>
      <rect class="cls-2" x="128.25" y="368.25" width="16" height="16"/>
      <rect class="cls-4" x="128.25" y="352.25" width="16" height="16"/>
      <rect class="cls-3" x="128.25" y="144.25" width="16" height="16"/>
      <rect class="cls-3" x="128.25" y="128.25" width="16" height="16"/>
      <rect class="cls-3" x="128.25" y="96.25" width="16" height="16"/>
      <rect class="cls-3" x="128.25" y="80.25" width="16" height="16"/>
      <rect class="cls-4" x="112.25" y="416.25" width="16" height="16"/>
      <rect class="cls-4" x="96.25" y="416.25" width="16" height="16"/>
      <rect class="cls-4" x="96.25" y="400.25" width="16" height="16"/>
      <rect class="cls-4" x="112.25" y="368.25" width="16" height="16"/>
      <rect class="cls-3" x="112.25" y="160.25" width="16" height="16"/>
      <rect class="cls-3" x="96.25" y="160.25" width="16" height="16"/>
      <rect class="cls-3" x="112.25" y="144.25" width="16" height="16"/>
      <rect class="cls-3" x="96.25" y="144.25" width="16" height="16"/>
      <rect class="cls-3" x="112.25" y="128.25" width="16" height="16"/>
      <rect class="cls-3" x="112.25" y="96.25" width="16" height="16"/>
      <rect class="cls-3" x="112.25" y="80.25" width="16" height="16"/>
      <rect class="cls-3" x="96.25" y="80.25" width="16" height="16"/>
      <rect class="cls-3" x="112.25" y="64.25" width="16" height="16"/>
      <rect class="cls-3" x="96.25" y="64.25" width="16" height="16"/>
      <rect class="cls-4" x="96.25" y="432.25" width="16" height="16"/>
      <rect class="cls-4" x="80.25" y="416.25" width="16" height="16"/>
      <rect class="cls-2" x="80.25" y="400.25" width="16" height="16"/>
      <rect class="cls-1" x="80.25" y="384.25" width="16" height="16"/>
      <rect class="cls-1" x="80.25" y="368.25" width="16" height="16"/>
      <rect class="cls-1" x="80.25" y="352.25" width="16" height="16"/>
      <rect class="cls-1" x="80.25" y="336.25" width="16" height="16"/>
      <rect class="cls-1" x="80.25" y="320.25" width="16" height="16"/>
      <rect class="cls-1" x="80.25" y="304.25" width="16" height="16"/>
      <rect class="cls-1" x="80.25" y="288.25" width="16" height="16"/>
      <rect class="cls-1" x="80.25" y="272.25" width="16" height="16"/>
      <rect class="cls-1" x="80.25" y="256.25" width="16" height="16"/>
      <rect class="cls-1" x="80.25" y="240.25" width="16" height="16"/>
      <rect class="cls-1" x="80.25" y="224.25" width="16" height="16"/>
      <rect class="cls-1" x="80.25" y="208.25" width="16" height="16"/>
      <rect class="cls-1" x="80.25" y="192.25" width="16" height="16"/>
      <rect class="cls-1" x="80.25" y="176.25" width="16" height="16"/>
      <rect class="cls-1" x="80.25" y="160.25" width="16" height="16"/>
      <rect class="cls-4" x="80.25" y="432.25" width="16" height="16"/>
      <rect class="cls-2" x="64.25" y="416.25" width="16" height="16"/>
      <rect class="cls-4" x="64.25" y="400.25" width="16" height="16"/>
      <rect class="cls-3" x="64.25" y="160.25" width="16" height="16"/>
      <rect class="cls-3" x="64.25" y="144.25" width="16" height="16"/>
      <rect class="cls-4" x="64.25" y="432.25" width="16" height="16"/>
      <rect class="cls-4" x="48.25" y="416.25" width="16" height="16"/>
      <rect class="cls-3" x="48.25" y="160.25" width="16" height="16"/>
      <rect class="cls-3" x="48.25" y="144.25" width="16" height="16"/>
      <rect class="cls-3" x="48.25" y="128.25" width="16" height="16"/>
      <rect class="cls-3" x="32.25" y="144.25" width="16" height="16"/>
      <rect class="cls-3" x="32.25" y="128.25" width="16" height="16"/>
    </g>
  </g>
</svg>