<?xml version="1.0" encoding="UTF-8"?>
<svg id="_Шар_2" data-name="Шар 2" xmlns="http://www.w3.org/2000/svg" viewBox="0 0 512.5 512.5">
  <defs>
    <style>
      .cls-1 {
        fill: #fff;
      }

      .cls-2 {
        fill: #ffe600;
      }

      .cls-3 {
        fill: #ff9b00;
      }

      .cls-4 {
        fill: #ff8300;
      }

      .cls-5 {
        fill: #a84200;
      }

      .cls-6 {
        fill: #dadfe2;
      }

      .cls-7 {
        fill: #be0302;
      }

      .cls-8 {
        fill: #a8661f;
      }

      .cls-9 {
        fill: #402100;
      }

      .cls-10 {
        fill: #566fe6;
      }
    </style>
  </defs>
  <g id="_Шар_2-2" data-name="Шар 2">
    <g>
      <rect class="cls-6" x="432.25" y="400.25" width="16" height="16"/>
      <rect class="cls-6" x="432.25" y="384.25" width="16" height="16"/>
      <rect class="cls-6" x="432.25" y="368.25" width="16" height="16"/>
      <rect class="cls-6" x="432.25" y="352.25" width="16" height="16"/>
      <rect class="cls-6" x="432.25" y="336.25" width="16" height="16"/>
      <rect class="cls-6" x="432.25" y="320.25" width="16" height="16"/>
      <rect class="cls-6" x="432.25" y="304.25" width="16" height="16"/>
      <rect class="cls-6" x="432.25" y="288.25" width="16" height="16"/>
      <rect class="cls-6" x="432.25" y="272.25" width="16" height="16"/>
      <rect class="cls-6" x="432.25" y="256.25" width="16" height="16"/>
      <rect class="cls-6" x="432.25" y="240.25" width="16" height="16"/>
      <rect class="cls-6" x="416.25" y="416.25" width="16" height="16"/>
      <rect class="cls-4" x="416.25" y="400.25" width="16" height="16"/>
      <rect class="cls-4" x="416.25" y="384.25" width="16" height="16"/>
      <rect class="cls-4" x="416.25" y="368.25" width="16" height="16"/>
      <rect class="cls-4" x="416.25" y="352.25" width="16" height="16"/>
      <rect class="cls-3" x="416.25" y="336.25" width="16" height="16"/>
      <rect class="cls-6" x="416.25" y="320.25" width="16" height="16"/>
      <rect class="cls-6" x="416.25" y="304.25" width="16" height="16"/>
      <rect class="cls-6" x="416.25" y="288.25" width="16" height="16"/>
      <rect class="cls-6" x="416.25" y="272.25" width="16" height="16"/>
      <rect class="cls-6" x="416.25" y="256.25" width="16" height="16"/>
      <rect class="cls-6" x="416.25" y="240.25" width="16" height="16"/>
      <rect class="cls-6" x="416.25" y="224.25" width="16" height="16"/>
      <rect class="cls-6" x="416.25" y="208.25" width="16" height="16"/>
      <rect class="cls-6" x="400.25" y="432.25" width="16" height="16"/>
      <rect class="cls-4" x="400.25" y="416.25" width="16" height="16"/>
      <rect class="cls-4" x="400.25" y="400.25" width="16" height="16"/>
      <rect class="cls-3" x="400.25" y="384.25" width="16" height="16"/>
      <rect class="cls-3" x="400.25" y="368.25" width="16" height="16"/>
      <rect class="cls-3" x="400.25" y="352.25" width="16" height="16"/>
      <rect class="cls-3" x="400.25" y="336.25" width="16" height="16"/>
      <rect class="cls-3" x="400.25" y="320.25" width="16" height="16"/>
      <rect class="cls-6" x="400.25" y="304.25" width="16" height="16"/>
      <rect class="cls-6" x="400.25" y="288.25" width="16" height="16"/>
      <rect class="cls-6" x="400.25" y="224.25" width="16" height="16"/>
      <rect class="cls-6" x="400.25" y="208.25" width="16" height="16"/>
      <rect class="cls-6" x="400.25" y="192.25" width="16" height="16"/>
      <rect class="cls-6" x="384.25" y="464.25" width="16" height="16"/>
      <rect class="cls-6" x="384.25" y="448.25" width="16" height="16"/>
      <rect class="cls-4" x="384.25" y="432.25" width="16" height="16"/>
      <rect class="cls-4" x="384.25" y="416.25" width="16" height="16"/>
      <rect class="cls-2" x="384.25" y="400.25" width="16" height="16"/>
      <rect class="cls-3" x="384.25" y="384.25" width="16" height="16"/>
      <rect class="cls-3" x="384.25" y="368.25" width="16" height="16"/>
      <rect class="cls-3" x="384.25" y="352.25" width="16" height="16"/>
      <rect class="cls-3" x="384.25" y="336.25" width="16" height="16"/>
      <rect class="cls-3" x="384.25" y="320.25" width="16" height="16"/>
      <rect class="cls-10" x="384.25" y="304.25" width="16" height="16"/>
      <rect class="cls-6" x="384.25" y="288.25" width="16" height="16"/>
      <rect class="cls-6" x="384.25" y="208.25" width="16" height="16"/>
      <rect class="cls-6" x="384.25" y="192.25" width="16" height="16"/>
      <rect class="cls-6" x="368.25" y="464.25" width="16" height="16"/>
      <rect class="cls-4" x="368.25" y="448.25" width="16" height="16"/>
      <rect class="cls-4" x="368.25" y="432.25" width="16" height="16"/>
      <rect class="cls-2" x="368.25" y="416.25" width="16" height="16"/>
      <rect class="cls-2" x="368.25" y="400.25" width="16" height="16"/>
      <rect class="cls-3" x="368.25" y="384.25" width="16" height="16"/>
      <rect class="cls-3" x="368.25" y="368.25" width="16" height="16"/>
      <rect class="cls-3" x="368.25" y="352.25" width="16" height="16"/>
      <rect class="cls-3" x="368.25" y="336.25" width="16" height="16"/>
      <rect class="cls-3" x="368.25" y="320.25" width="16" height="16"/>
      <rect class="cls-10" x="368.25" y="304.25" width="16" height="16"/>
      <rect class="cls-10" x="368.25" y="288.25" width="16" height="16"/>
      <rect class="cls-6" x="368.25" y="272.25" width="16" height="16"/>
      <rect class="cls-6" x="368.25" y="208.25" width="16" height="16"/>
      <rect class="cls-6" x="368.25" y="192.25" width="16" height="16"/>
      <rect class="cls-6" x="352.25" y="464.25" width="16" height="16"/>
      <rect class="cls-4" x="352.25" y="448.25" width="16" height="16"/>
      <rect class="cls-2" x="352.25" y="432.25" width="16" height="16"/>
      <rect class="cls-3" x="352.25" y="416.25" width="16" height="16"/>
      <rect class="cls-2" x="352.25" y="400.25" width="16" height="16"/>
      <rect class="cls-3" x="352.25" y="384.25" width="16" height="16"/>
      <rect class="cls-3" x="352.25" y="368.25" width="16" height="16"/>
      <rect class="cls-3" x="352.25" y="352.25" width="16" height="16"/>
      <rect class="cls-3" x="352.25" y="336.25" width="16" height="16"/>
      <rect class="cls-3" x="352.25" y="320.25" width="16" height="16"/>
      <rect class="cls-10" x="352.25" y="304.25" width="16" height="16"/>
      <rect class="cls-10" x="352.25" y="288.25" width="16" height="16"/>
      <rect class="cls-10" x="352.25" y="272.25" width="16" height="16"/>
      <rect class="cls-6" x="352.25" y="256.25" width="16" height="16"/>
      <rect class="cls-6" x="352.25" y="208.25" width="16" height="16"/>
      <rect class="cls-6" x="352.25" y="192.25" width="16" height="16"/>
      <rect class="cls-6" x="352.25" y="96.25" width="16" height="16"/>
      <rect class="cls-6" x="336.25" y="464.25" width="16" height="16"/>
      <rect class="cls-4" x="336.25" y="448.25" width="16" height="16"/>
      <rect class="cls-4" x="336.25" y="432.25" width="16" height="16"/>
      <rect class="cls-3" x="336.25" y="416.25" width="16" height="16"/>
      <rect class="cls-2" x="336.25" y="400.25" width="16" height="16"/>
      <rect class="cls-3" x="336.25" y="384.25" width="16" height="16"/>
      <rect class="cls-3" x="336.25" y="368.25" width="16" height="16"/>
      <rect class="cls-3" x="336.25" y="352.25" width="16" height="16"/>
      <rect class="cls-3" x="336.25" y="336.25" width="16" height="16"/>
      <rect class="cls-3" x="336.25" y="320.25" width="16" height="16"/>
      <rect class="cls-10" x="336.25" y="304.25" width="16" height="16"/>
      <rect class="cls-10" x="336.25" y="288.25" width="16" height="16"/>
      <rect class="cls-10" x="336.25" y="272.25" width="16" height="16"/>
      <rect class="cls-10" x="336.25" y="256.25" width="16" height="16"/>
      <rect class="cls-6" x="336.25" y="240.25" width="16" height="16"/>
      <rect class="cls-6" x="336.25" y="224.25" width="16" height="16"/>
      <rect class="cls-6" x="336.25" y="208.25" width="16" height="16"/>
      <rect class="cls-6" x="336.25" y="192.25" width="16" height="16"/>
      <rect class="cls-6" x="336.25" y="176.25" width="16" height="16"/>
      <rect class="cls-6" x="336.25" y="160.25" width="16" height="16"/>
      <rect class="cls-6" x="336.25" y="144.25" width="16" height="16"/>
      <rect class="cls-6" x="336.25" y="128.25" width="16" height="16"/>
      <rect class="cls-6" x="336.25" y="112.25" width="16" height="16"/>
      <rect class="cls-6" x="336.25" y="96.25" width="16" height="16"/>
      <rect class="cls-5" x="336.25" y="80.25" width="16" height="16"/>
      <rect class="cls-5" x="336.25" y="64.25" width="16" height="16"/>
      <rect class="cls-6" x="320.25" y="464.25" width="16" height="16"/>
      <rect class="cls-4" x="320.25" y="448.25" width="16" height="16"/>
      <rect class="cls-4" x="320.25" y="432.25" width="16" height="16"/>
      <rect class="cls-3" x="320.25" y="416.25" width="16" height="16"/>
      <rect class="cls-2" x="320.25" y="400.25" width="16" height="16"/>
      <rect class="cls-3" x="320.25" y="384.25" width="16" height="16"/>
      <rect class="cls-3" x="320.25" y="368.25" width="16" height="16"/>
      <rect class="cls-3" x="320.25" y="352.25" width="16" height="16"/>
      <rect class="cls-3" x="320.25" y="336.25" width="16" height="16"/>
      <rect class="cls-3" x="320.25" y="320.25" width="16" height="16"/>
      <rect class="cls-10" x="320.25" y="304.25" width="16" height="16"/>
      <rect class="cls-10" x="320.25" y="288.25" width="16" height="16"/>
      <rect class="cls-10" x="320.25" y="272.25" width="16" height="16"/>
      <rect class="cls-10" x="320.25" y="256.25" width="16" height="16"/>
      <rect class="cls-10" x="320.25" y="240.25" width="16" height="16"/>
      <rect class="cls-10" x="320.25" y="224.25" width="16" height="16"/>
      <rect class="cls-10" x="320.25" y="208.25" width="16" height="16"/>
      <rect class="cls-10" x="320.25" y="192.25" width="16" height="16"/>
      <rect class="cls-10" x="320.25" y="176.25" width="16" height="16"/>
      <rect class="cls-10" x="320.25" y="160.25" width="16" height="16"/>
      <rect class="cls-10" x="320.25" y="144.25" width="16" height="16"/>
      <rect class="cls-5" x="320.25" y="128.25" width="16" height="16"/>
      <rect class="cls-5" x="320.25" y="112.25" width="16" height="16"/>
      <rect class="cls-6" x="320.25" y="96.25" width="16" height="16"/>
      <rect class="cls-5" x="320.25" y="80.25" width="16" height="16"/>
      <rect class="cls-8" x="320.25" y="64.25" width="16" height="16"/>
      <rect class="cls-6" x="304.25" y="464.25" width="16" height="16"/>
      <rect class="cls-4" x="304.25" y="448.25" width="16" height="16"/>
      <rect class="cls-4" x="304.25" y="432.25" width="16" height="16"/>
      <rect class="cls-3" x="304.25" y="416.25" width="16" height="16"/>
      <rect class="cls-3" x="304.25" y="400.25" width="16" height="16"/>
      <rect class="cls-3" x="304.25" y="384.25" width="16" height="16"/>
      <rect class="cls-3" x="304.25" y="368.25" width="16" height="16"/>
      <rect class="cls-3" x="304.25" y="352.25" width="16" height="16"/>
      <rect class="cls-3" x="304.25" y="336.25" width="16" height="16"/>
      <rect class="cls-3" x="304.25" y="320.25" width="16" height="16"/>
      <rect class="cls-10" x="304.25" y="304.25" width="16" height="16"/>
      <rect class="cls-10" x="304.25" y="288.25" width="16" height="16"/>
      <rect class="cls-10" x="304.25" y="272.25" width="16" height="16"/>
      <rect class="cls-10" x="304.25" y="256.25" width="16" height="16"/>
      <rect class="cls-10" x="304.25" y="240.25" width="16" height="16"/>
      <rect class="cls-10" x="304.25" y="224.25" width="16" height="16"/>
      <rect class="cls-10" x="304.25" y="208.25" width="16" height="16"/>
      <rect class="cls-10" x="304.25" y="192.25" width="16" height="16"/>
      <rect class="cls-10" x="304.25" y="176.25" width="16" height="16"/>
      <rect class="cls-10" x="304.25" y="160.25" width="16" height="16"/>
      <rect class="cls-10" x="304.25" y="144.25" width="16" height="16"/>
      <rect class="cls-8" x="304.25" y="128.25" width="16" height="16"/>
      <rect class="cls-8" x="304.25" y="112.25" width="16" height="16"/>
      <rect class="cls-6" x="304.25" y="96.25" width="16" height="16"/>
      <rect class="cls-8" x="304.25" y="80.25" width="16" height="16"/>
      <rect class="cls-8" x="304.25" y="64.25" width="16" height="16"/>
      <rect class="cls-6" x="288.25" y="464.25" width="16" height="16"/>
      <rect class="cls-4" x="288.25" y="448.25" width="16" height="16"/>
      <rect class="cls-4" x="288.25" y="432.25" width="16" height="16"/>
      <rect class="cls-3" x="288.25" y="416.25" width="16" height="16"/>
      <rect class="cls-3" x="288.25" y="400.25" width="16" height="16"/>
      <rect class="cls-3" x="288.25" y="384.25" width="16" height="16"/>
      <rect class="cls-3" x="288.25" y="368.25" width="16" height="16"/>
      <rect class="cls-3" x="288.25" y="352.25" width="16" height="16"/>
      <rect class="cls-3" x="288.25" y="336.25" width="16" height="16"/>
      <rect class="cls-2" x="288.25" y="320.25" width="16" height="16"/>
      <rect class="cls-1" x="288.25" y="304.25" width="16" height="16"/>
      <rect class="cls-10" x="288.25" y="288.25" width="16" height="16"/>
      <rect class="cls-10" x="288.25" y="272.25" width="16" height="16"/>
      <rect class="cls-10" x="288.25" y="256.25" width="16" height="16"/>
      <rect class="cls-10" x="288.25" y="240.25" width="16" height="16"/>
      <rect class="cls-10" x="288.25" y="224.25" width="16" height="16"/>
      <rect class="cls-10" x="288.25" y="208.25" width="16" height="16"/>
      <rect class="cls-10" x="288.25" y="192.25" width="16" height="16"/>
      <rect class="cls-10" x="288.25" y="176.25" width="16" height="16"/>
      <rect class="cls-10" x="288.25" y="160.25" width="16" height="16"/>
      <rect class="cls-10" x="288.25" y="144.25" width="16" height="16"/>
      <rect class="cls-8" x="288.25" y="128.25" width="16" height="16"/>
      <rect class="cls-8" x="288.25" y="112.25" width="16" height="16"/>
      <rect class="cls-6" x="288.25" y="96.25" width="16" height="16"/>
      <rect class="cls-8" x="288.25" y="80.25" width="16" height="16"/>
      <rect class="cls-8" x="288.25" y="64.25" width="16" height="16"/>
      <rect class="cls-6" x="272.25" y="464.25" width="16" height="16"/>
      <rect class="cls-4" x="272.25" y="448.25" width="16" height="16"/>
      <rect class="cls-4" x="272.25" y="432.25" width="16" height="16"/>
      <rect class="cls-3" x="272.25" y="416.25" width="16" height="16"/>
      <rect class="cls-3" x="272.25" y="400.25" width="16" height="16"/>
      <rect class="cls-3" x="272.25" y="384.25" width="16" height="16"/>
      <rect class="cls-3" x="272.25" y="368.25" width="16" height="16"/>
      <rect class="cls-3" x="272.25" y="352.25" width="16" height="16"/>
      <rect class="cls-3" x="272.25" y="336.25" width="16" height="16"/>
      <rect class="cls-2" x="272.25" y="320.25" width="16" height="16"/>
      <rect class="cls-1" x="272.25" y="304.25" width="16" height="16"/>
      <rect class="cls-1" x="272.25" y="288.25" width="16" height="16"/>
      <rect class="cls-10" x="272.25" y="272.25" width="16" height="16"/>
      <rect class="cls-10" x="272.25" y="256.25" width="16" height="16"/>
      <rect class="cls-6" x="272.25" y="240.25" width="16" height="16"/>
      <rect class="cls-6" x="272.25" y="224.25" width="16" height="16"/>
      <rect class="cls-6" x="272.25" y="208.25" width="16" height="16"/>
      <rect class="cls-6" x="272.25" y="192.25" width="16" height="16"/>
      <rect class="cls-6" x="272.25" y="176.25" width="16" height="16"/>
      <rect class="cls-6" x="272.25" y="160.25" width="16" height="16"/>
      <rect class="cls-6" x="272.25" y="144.25" width="16" height="16"/>
      <rect class="cls-6" x="272.25" y="128.25" width="16" height="16"/>
      <rect class="cls-6" x="272.25" y="112.25" width="16" height="16"/>
      <rect class="cls-6" x="272.25" y="96.25" width="16" height="16"/>
      <rect class="cls-8" x="272.25" y="80.25" width="16" height="16"/>
      <rect class="cls-8" x="272.25" y="64.25" width="16" height="16"/>
      <rect class="cls-6" x="256.25" y="464.25" width="16" height="16"/>
      <rect class="cls-4" x="256.25" y="448.25" width="16" height="16"/>
      <rect class="cls-4" x="256.25" y="432.25" width="16" height="16"/>
      <rect class="cls-3" x="256.25" y="416.25" width="16" height="16"/>
      <rect class="cls-3" x="256.25" y="400.25" width="16" height="16"/>
      <rect class="cls-2" x="256.25" y="384.25" width="16" height="16"/>
      <rect class="cls-3" x="256.25" y="368.25" width="16" height="16"/>
      <rect class="cls-3" x="256.25" y="352.25" width="16" height="16"/>
      <rect class="cls-3" x="256.25" y="336.25" width="16" height="16"/>
      <rect class="cls-2" x="256.25" y="320.25" width="16" height="16"/>
      <rect class="cls-1" x="256.25" y="304.25" width="16" height="16"/>
      <rect class="cls-10" x="256.25" y="288.25" width="16" height="16"/>
      <rect class="cls-10" x="256.25" y="272.25" width="16" height="16"/>
      <rect class="cls-6" x="256.25" y="256.25" width="16" height="16"/>
      <rect class="cls-6" x="256.25" y="96.25" width="16" height="16"/>
      <rect class="cls-6" x="240.25" y="464.25" width="16" height="16"/>
      <rect class="cls-6" x="240.25" y="448.25" width="16" height="16"/>
      <rect class="cls-4" x="240.25" y="432.25" width="16" height="16"/>
      <rect class="cls-3" x="240.25" y="416.25" width="16" height="16"/>
      <rect class="cls-2" x="240.25" y="400.25" width="16" height="16"/>
      <rect class="cls-3" x="240.25" y="384.25" width="16" height="16"/>
      <rect class="cls-3" x="240.25" y="368.25" width="16" height="16"/>
      <rect class="cls-3" x="240.25" y="352.25" width="16" height="16"/>
      <rect class="cls-3" x="240.25" y="336.25" width="16" height="16"/>
      <rect class="cls-2" x="240.25" y="320.25" width="16" height="16"/>
      <rect class="cls-1" x="240.25" y="304.25" width="16" height="16"/>
      <rect class="cls-10" x="240.25" y="288.25" width="16" height="16"/>
      <rect class="cls-6" x="240.25" y="272.25" width="16" height="16"/>
      <rect class="cls-6" x="224.25" y="432.25" width="16" height="16"/>
      <rect class="cls-3" x="224.25" y="416.25" width="16" height="16"/>
      <rect class="cls-3" x="224.25" y="400.25" width="16" height="16"/>
      <rect class="cls-3" x="224.25" y="384.25" width="16" height="16"/>
      <rect class="cls-3" x="224.25" y="368.25" width="16" height="16"/>
      <rect class="cls-3" x="224.25" y="352.25" width="16" height="16"/>
      <rect class="cls-2" x="224.25" y="336.25" width="16" height="16"/>
      <rect class="cls-3" x="224.25" y="320.25" width="16" height="16"/>
      <rect class="cls-10" x="224.25" y="304.25" width="16" height="16"/>
      <rect class="cls-6" x="224.25" y="288.25" width="16" height="16"/>
      <rect class="cls-6" x="208.25" y="416.25" width="16" height="16"/>
      <rect class="cls-3" x="208.25" y="400.25" width="16" height="16"/>
      <rect class="cls-3" x="208.25" y="384.25" width="16" height="16"/>
      <rect class="cls-2" x="208.25" y="368.25" width="16" height="16"/>
      <rect class="cls-2" x="208.25" y="352.25" width="16" height="16"/>
      <rect class="cls-3" x="208.25" y="336.25" width="16" height="16"/>
      <rect class="cls-3" x="208.25" y="320.25" width="16" height="16"/>
      <rect class="cls-6" x="208.25" y="304.25" width="16" height="16"/>
      <rect class="cls-6" x="192.25" y="400.25" width="16" height="16"/>
      <rect class="cls-6" x="192.25" y="384.25" width="16" height="16"/>
      <rect class="cls-6" x="192.25" y="368.25" width="16" height="16"/>
      <rect class="cls-6" x="192.25" y="352.25" width="16" height="16"/>
      <rect class="cls-6" x="192.25" y="336.25" width="16" height="16"/>
      <rect class="cls-6" x="192.25" y="320.25" width="16" height="16"/>
      <rect class="cls-7" x="176.25" y="368.25" width="16" height="16"/>
      <rect class="cls-7" x="176.25" y="352.25" width="16" height="16"/>
      <rect class="cls-7" x="176.25" y="336.25" width="16" height="16"/>
      <rect class="cls-7" x="176.25" y="320.25" width="16" height="16"/>
      <rect class="cls-7" x="160.25" y="400.25" width="16" height="16"/>
      <rect class="cls-7" x="160.25" y="384.25" width="16" height="16"/>
      <rect class="cls-7" x="160.25" y="368.25" width="16" height="16"/>
      <rect class="cls-7" x="160.25" y="352.25" width="16" height="16"/>
      <rect class="cls-7" x="160.25" y="336.25" width="16" height="16"/>
      <rect class="cls-7" x="160.25" y="320.25" width="16" height="16"/>
      <rect class="cls-7" x="160.25" y="304.25" width="16" height="16"/>
      <rect class="cls-7" x="144.25" y="416.25" width="16" height="16"/>
      <rect class="cls-7" x="144.25" y="400.25" width="16" height="16"/>
      <rect class="cls-7" x="144.25" y="384.25" width="16" height="16"/>
      <rect class="cls-7" x="144.25" y="368.25" width="16" height="16"/>
      <rect class="cls-7" x="144.25" y="352.25" width="16" height="16"/>
      <rect class="cls-7" x="144.25" y="336.25" width="16" height="16"/>
      <rect class="cls-7" x="144.25" y="320.25" width="16" height="16"/>
      <rect class="cls-7" x="144.25" y="304.25" width="16" height="16"/>
      <rect class="cls-7" x="144.25" y="288.25" width="16" height="16"/>
      <rect class="cls-7" x="128.25" y="432.25" width="16" height="16"/>
      <rect class="cls-7" x="128.25" y="416.25" width="16" height="16"/>
      <rect class="cls-7" x="128.25" y="400.25" width="16" height="16"/>
      <rect class="cls-7" x="128.25" y="384.25" width="16" height="16"/>
      <rect class="cls-7" x="128.25" y="368.25" width="16" height="16"/>
      <rect class="cls-7" x="128.25" y="352.25" width="16" height="16"/>
      <rect class="cls-7" x="128.25" y="336.25" width="16" height="16"/>
      <rect class="cls-7" x="128.25" y="320.25" width="16" height="16"/>
      <rect class="cls-4" x="128.25" y="304.25" width="16" height="16"/>
      <rect class="cls-7" x="128.25" y="288.25" width="16" height="16"/>
      <rect class="cls-9" x="112.25" y="448.25" width="16" height="16"/>
      <rect class="cls-7" x="112.25" y="432.25" width="16" height="16"/>
      <rect class="cls-7" x="112.25" y="416.25" width="16" height="16"/>
      <rect class="cls-7" x="112.25" y="400.25" width="16" height="16"/>
      <rect class="cls-7" x="112.25" y="384.25" width="16" height="16"/>
      <rect class="cls-7" x="112.25" y="368.25" width="16" height="16"/>
      <rect class="cls-7" x="112.25" y="352.25" width="16" height="16"/>
      <rect class="cls-7" x="112.25" y="336.25" width="16" height="16"/>
      <rect class="cls-4" x="112.25" y="320.25" width="16" height="16"/>
      <rect class="cls-4" x="112.25" y="304.25" width="16" height="16"/>
      <rect class="cls-7" x="112.25" y="288.25" width="16" height="16"/>
      <rect class="cls-9" x="112.25" y="272.25" width="16" height="16"/>
      <rect class="cls-9" x="112.25" y="256.25" width="16" height="16"/>
      <rect class="cls-9" x="96.25" y="448.25" width="16" height="16"/>
      <rect class="cls-7" x="96.25" y="432.25" width="16" height="16"/>
      <rect class="cls-7" x="96.25" y="416.25" width="16" height="16"/>
      <rect class="cls-7" x="96.25" y="400.25" width="16" height="16"/>
      <rect class="cls-7" x="96.25" y="384.25" width="16" height="16"/>
      <rect class="cls-7" x="96.25" y="368.25" width="16" height="16"/>
      <rect class="cls-7" x="96.25" y="352.25" width="16" height="16"/>
      <rect class="cls-7" x="96.25" y="336.25" width="16" height="16"/>
      <rect class="cls-4" x="96.25" y="320.25" width="16" height="16"/>
      <rect class="cls-9" x="96.25" y="304.25" width="16" height="16"/>
      <rect class="cls-9" x="96.25" y="288.25" width="16" height="16"/>
      <rect class="cls-9" x="96.25" y="272.25" width="16" height="16"/>
      <rect class="cls-9" x="96.25" y="256.25" width="16" height="16"/>
      <rect class="cls-7" x="80.25" y="432.25" width="16" height="16"/>
      <rect class="cls-7" x="80.25" y="416.25" width="16" height="16"/>
      <rect class="cls-7" x="80.25" y="400.25" width="16" height="16"/>
      <rect class="cls-7" x="80.25" y="384.25" width="16" height="16"/>
      <rect class="cls-7" x="80.25" y="368.25" width="16" height="16"/>
      <rect class="cls-7" x="80.25" y="352.25" width="16" height="16"/>
      <rect class="cls-7" x="80.25" y="336.25" width="16" height="16"/>
      <rect class="cls-7" x="80.25" y="320.25" width="16" height="16"/>
      <rect class="cls-4" x="80.25" y="304.25" width="16" height="16"/>
      <rect class="cls-7" x="80.25" y="288.25" width="16" height="16"/>
      <rect class="cls-7" x="64.25" y="416.25" width="16" height="16"/>
      <rect class="cls-7" x="64.25" y="400.25" width="16" height="16"/>
      <rect class="cls-7" x="64.25" y="384.25" width="16" height="16"/>
      <rect class="cls-7" x="64.25" y="368.25" width="16" height="16"/>
      <rect class="cls-7" x="64.25" y="352.25" width="16" height="16"/>
      <rect class="cls-7" x="64.25" y="336.25" width="16" height="16"/>
      <rect class="cls-7" x="64.25" y="320.25" width="16" height="16"/>
      <rect class="cls-7" x="64.25" y="304.25" width="16" height="16"/>
      <rect class="cls-7" x="64.25" y="288.25" width="16" height="16"/>
      <rect class="cls-7" x="48.25" y="400.25" width="16" height="16"/>
      <rect class="cls-7" x="48.25" y="384.25" width="16" height="16"/>
      <rect class="cls-7" x="48.25" y="368.25" width="16" height="16"/>
      <rect class="cls-7" x="48.25" y="352.25" width="16" height="16"/>
      <rect class="cls-7" x="48.25" y="336.25" width="16" height="16"/>
      <rect class="cls-4" x="48.25" y="320.25" width="16" height="16"/>
      <rect class="cls-7" x="48.25" y="304.25" width="16" height="16"/>
      <rect class="cls-7" x="32.25" y="384.25" width="16" height="16"/>
      <rect class="cls-4" x="32.25" y="368.25" width="16" height="16"/>
      <rect class="cls-4" x="32.25" y="352.25" width="16" height="16"/>
      <rect class="cls-4" x="32.25" y="336.25" width="16" height="16"/>
      <rect class="cls-7" x="32.25" y="320.25" width="16" height="16"/>
    </g>
  </g>
</svg>