<?xml version="1.0" encoding="UTF-8"?>
<svg id="_Шар_2" data-name="Шар 2" xmlns="http://www.w3.org/2000/svg" viewBox="0 0 512.5 512.5">
  <defs>
    <style>
      .cls-1 {
        fill: #041050;
      }

      .cls-2 {
        fill: #566fe6;
      }

      .cls-3 {
        fill: #5cd9ff;
      }
    </style>
  </defs>
  <g id="_Шар_7" data-name="Шар 7">
    <g>
      <rect class="cls-1" x="400.25" y="400.25" width="16" height="16"/>
      <rect class="cls-1" x="400.25" y="384.25" width="16" height="16"/>
      <rect class="cls-1" x="400.25" y="368.25" width="16" height="16"/>
      <rect class="cls-1" x="400.25" y="352.25" width="16" height="16"/>
      <rect class="cls-1" x="400.25" y="336.25" width="16" height="16"/>
      <rect class="cls-1" x="400.25" y="320.25" width="16" height="16"/>
      <rect class="cls-1" x="384.25" y="416.25" width="16" height="16"/>
      <rect class="cls-1" x="384.25" y="400.25" width="16" height="16"/>
      <rect class="cls-1" x="384.25" y="384.25" width="16" height="16"/>
      <rect class="cls-1" x="384.25" y="368.25" width="16" height="16"/>
      <rect class="cls-1" x="384.25" y="352.25" width="16" height="16"/>
      <rect class="cls-1" x="384.25" y="336.25" width="16" height="16"/>
      <rect class="cls-1" x="384.25" y="320.25" width="16" height="16"/>
      <rect class="cls-1" x="384.25" y="304.25" width="16" height="16"/>
      <rect class="cls-1" x="384.25" y="288.25" width="16" height="16"/>
      <rect class="cls-1" x="368.25" y="432.25" width="16" height="16"/>
      <rect class="cls-1" x="368.25" y="416.25" width="16" height="16"/>
      <rect class="cls-1" x="368.25" y="400.25" width="16" height="16"/>
      <rect class="cls-1" x="368.25" y="384.25" width="16" height="16"/>
      <rect class="cls-1" x="368.25" y="368.25" width="16" height="16"/>
      <rect class="cls-1" x="368.25" y="352.25" width="16" height="16"/>
      <rect class="cls-1" x="368.25" y="336.25" width="16" height="16"/>
      <rect class="cls-1" x="368.25" y="320.25" width="16" height="16"/>
      <rect class="cls-1" x="368.25" y="304.25" width="16" height="16"/>
      <rect class="cls-1" x="368.25" y="288.25" width="16" height="16"/>
      <rect class="cls-1" x="368.25" y="272.25" width="16" height="16"/>
      <rect class="cls-1" x="368.25" y="256.25" width="16" height="16"/>
      <rect class="cls-1" x="352.25" y="448.25" width="16" height="16"/>
      <rect class="cls-1" x="352.25" y="432.25" width="16" height="16"/>
      <rect class="cls-1" x="352.25" y="416.25" width="16" height="16"/>
      <rect class="cls-1" x="352.25" y="400.25" width="16" height="16"/>
      <rect class="cls-2" x="352.25" y="384.25" width="16" height="16"/>
      <rect class="cls-2" x="352.25" y="368.25" width="16" height="16"/>
      <rect class="cls-2" x="352.25" y="352.25" width="16" height="16"/>
      <rect class="cls-2" x="352.25" y="336.25" width="16" height="16"/>
      <rect class="cls-2" x="352.25" y="320.25" width="16" height="16"/>
      <rect class="cls-2" x="352.25" y="304.25" width="16" height="16"/>
      <rect class="cls-2" x="352.25" y="288.25" width="16" height="16"/>
      <rect class="cls-2" x="352.25" y="272.25" width="16" height="16"/>
      <rect class="cls-1" x="352.25" y="256.25" width="16" height="16"/>
      <rect class="cls-1" x="352.25" y="240.25" width="16" height="16"/>
      <rect class="cls-1" x="352.25" y="224.25" width="16" height="16"/>
      <rect class="cls-1" x="336.25" y="464.25" width="16" height="16"/>
      <rect class="cls-1" x="336.25" y="448.25" width="16" height="16"/>
      <rect class="cls-1" x="336.25" y="432.25" width="16" height="16"/>
      <rect class="cls-2" x="336.25" y="416.25" width="16" height="16"/>
      <rect class="cls-2" x="336.25" y="400.25" width="16" height="16"/>
      <rect class="cls-2" x="336.25" y="384.25" width="16" height="16"/>
      <rect class="cls-2" x="336.25" y="368.25" width="16" height="16"/>
      <rect class="cls-2" x="336.25" y="352.25" width="16" height="16"/>
      <rect class="cls-2" x="336.25" y="336.25" width="16" height="16"/>
      <rect class="cls-2" x="336.25" y="320.25" width="16" height="16"/>
      <rect class="cls-2" x="336.25" y="304.25" width="16" height="16"/>
      <rect class="cls-2" x="336.25" y="288.25" width="16" height="16"/>
      <rect class="cls-2" x="336.25" y="272.25" width="16" height="16"/>
      <rect class="cls-2" x="336.25" y="256.25" width="16" height="16"/>
      <rect class="cls-2" x="336.25" y="240.25" width="16" height="16"/>
      <rect class="cls-1" x="336.25" y="224.25" width="16" height="16"/>
      <rect class="cls-1" x="336.25" y="208.25" width="16" height="16"/>
      <polygon class="cls-1" points="336.25 480.25 336.25 496.25 320.25 496.25 304.25 496.25 288.25 496.25 272.25 496.25 256.25 496.25 240.25 496.25 224.25 496.25 208.25 496.25 192.25 496.25 192.25 480.25 208.25 480.25 224.25 480.25 240.25 480.25 256.25 480.25 272.25 480.25 288.25 480.25 304.25 480.25 320.25 480.25 336.25 480.25"/>
      <rect class="cls-1" x="320.25" y="464.25" width="16" height="16"/>
      <rect class="cls-1" x="320.25" y="448.25" width="16" height="16"/>
      <rect class="cls-2" x="320.25" y="432.25" width="16" height="16"/>
      <rect class="cls-2" x="320.25" y="416.25" width="16" height="16"/>
      <rect class="cls-2" x="320.25" y="400.25" width="16" height="16"/>
      <rect class="cls-2" x="320.25" y="384.25" width="16" height="16"/>
      <rect class="cls-2" x="320.25" y="368.25" width="16" height="16"/>
      <rect class="cls-2" x="320.25" y="352.25" width="16" height="16"/>
      <rect class="cls-2" x="320.25" y="336.25" width="16" height="16"/>
      <rect class="cls-2" x="320.25" y="320.25" width="16" height="16"/>
      <rect class="cls-2" x="320.25" y="304.25" width="16" height="16"/>
      <rect class="cls-2" x="320.25" y="288.25" width="16" height="16"/>
      <rect class="cls-2" x="320.25" y="272.25" width="16" height="16"/>
      <rect class="cls-2" x="320.25" y="256.25" width="16" height="16"/>
      <rect class="cls-2" x="320.25" y="240.25" width="16" height="16"/>
      <rect class="cls-2" x="320.25" y="224.25" width="16" height="16"/>
      <rect class="cls-1" x="320.25" y="208.25" width="16" height="16"/>
      <rect class="cls-1" x="320.25" y="192.25" width="16" height="16"/>
      <rect class="cls-1" x="320.25" y="176.25" width="16" height="16"/>
      <rect class="cls-1" x="304.25" y="464.25" width="16" height="16"/>
      <rect class="cls-1" x="304.25" y="448.25" width="16" height="16"/>
      <rect class="cls-2" x="304.25" y="432.25" width="16" height="16"/>
      <rect class="cls-2" x="304.25" y="416.25" width="16" height="16"/>
      <rect class="cls-2" x="304.25" y="400.25" width="16" height="16"/>
      <rect class="cls-2" x="304.25" y="384.25" width="16" height="16"/>
      <rect class="cls-2" x="304.25" y="368.25" width="16" height="16"/>
      <rect class="cls-2" x="304.25" y="352.25" width="16" height="16"/>
      <rect class="cls-2" x="304.25" y="336.25" width="16" height="16"/>
      <rect class="cls-2" x="304.25" y="320.25" width="16" height="16"/>
      <rect class="cls-2" x="304.25" y="304.25" width="16" height="16"/>
      <rect class="cls-2" x="304.25" y="288.25" width="16" height="16"/>
      <rect class="cls-2" x="304.25" y="272.25" width="16" height="16"/>
      <rect class="cls-2" x="304.25" y="256.25" width="16" height="16"/>
      <rect class="cls-2" x="304.25" y="240.25" width="16" height="16"/>
      <rect class="cls-2" x="304.25" y="224.25" width="16" height="16"/>
      <rect class="cls-2" x="304.25" y="208.25" width="16" height="16"/>
      <rect class="cls-2" x="304.25" y="192.25" width="16" height="16"/>
      <rect class="cls-2" x="304.25" y="176.25" width="16" height="16"/>
      <rect class="cls-1" x="304.25" y="160.25" width="16" height="16"/>
      <rect class="cls-1" x="288.25" y="464.25" width="16" height="16"/>
      <rect class="cls-1" x="288.25" y="448.25" width="16" height="16"/>
      <rect class="cls-2" x="288.25" y="432.25" width="16" height="16"/>
      <rect class="cls-2" x="288.25" y="416.25" width="16" height="16"/>
      <rect class="cls-2" x="288.25" y="400.25" width="16" height="16"/>
      <rect class="cls-2" x="288.25" y="384.25" width="16" height="16"/>
      <rect class="cls-2" x="288.25" y="368.25" width="16" height="16"/>
      <rect class="cls-2" x="288.25" y="352.25" width="16" height="16"/>
      <rect class="cls-2" x="288.25" y="336.25" width="16" height="16"/>
      <rect class="cls-2" x="288.25" y="320.25" width="16" height="16"/>
      <rect class="cls-2" x="288.25" y="304.25" width="16" height="16"/>
      <rect class="cls-2" x="288.25" y="288.25" width="16" height="16"/>
      <rect class="cls-2" x="288.25" y="272.25" width="16" height="16"/>
      <rect class="cls-2" x="288.25" y="256.25" width="16" height="16"/>
      <rect class="cls-2" x="288.25" y="240.25" width="16" height="16"/>
      <rect class="cls-2" x="288.25" y="224.25" width="16" height="16"/>
      <rect class="cls-2" x="288.25" y="208.25" width="16" height="16"/>
      <rect class="cls-2" x="288.25" y="192.25" width="16" height="16"/>
      <rect class="cls-2" x="288.25" y="176.25" width="16" height="16"/>
      <rect class="cls-2" x="288.25" y="160.25" width="16" height="16"/>
      <rect class="cls-2" x="288.25" y="144.25" width="16" height="16"/>
      <rect class="cls-1" x="272.25" y="464.25" width="16" height="16"/>
      <rect class="cls-1" x="272.25" y="448.25" width="16" height="16"/>
      <rect class="cls-2" x="272.25" y="432.25" width="16" height="16"/>
      <rect class="cls-2" x="272.25" y="416.25" width="16" height="16"/>
      <rect class="cls-2" x="272.25" y="400.25" width="16" height="16"/>
      <rect class="cls-2" x="272.25" y="384.25" width="16" height="16"/>
      <rect class="cls-2" x="272.25" y="368.25" width="16" height="16"/>
      <rect class="cls-2" x="272.25" y="352.25" width="16" height="16"/>
      <rect class="cls-2" x="272.25" y="336.25" width="16" height="16"/>
      <rect class="cls-2" x="272.25" y="320.25" width="16" height="16"/>
      <rect class="cls-2" x="272.25" y="304.25" width="16" height="16"/>
      <rect class="cls-2" x="272.25" y="288.25" width="16" height="16"/>
      <rect class="cls-2" x="272.25" y="272.25" width="16" height="16"/>
      <rect class="cls-2" x="272.25" y="256.25" width="16" height="16"/>
      <rect class="cls-2" x="272.25" y="240.25" width="16" height="16"/>
      <rect class="cls-2" x="272.25" y="224.25" width="16" height="16"/>
      <rect class="cls-2" x="272.25" y="208.25" width="16" height="16"/>
      <rect class="cls-2" x="272.25" y="192.25" width="16" height="16"/>
      <rect class="cls-2" x="272.25" y="176.25" width="16" height="16"/>
      <rect class="cls-2" x="272.25" y="160.25" width="16" height="16"/>
      <rect class="cls-2" x="272.25" y="144.25" width="16" height="16"/>
      <rect class="cls-2" x="272.25" y="128.25" width="16" height="16"/>
      <rect class="cls-1" x="256.25" y="464.25" width="16" height="16"/>
      <rect class="cls-1" x="256.25" y="448.25" width="16" height="16"/>
      <rect class="cls-2" x="256.25" y="432.25" width="16" height="16"/>
      <rect class="cls-2" x="256.25" y="416.25" width="16" height="16"/>
      <rect class="cls-2" x="256.25" y="400.25" width="16" height="16"/>
      <rect class="cls-2" x="256.25" y="384.25" width="16" height="16"/>
      <rect class="cls-2" x="256.25" y="368.25" width="16" height="16"/>
      <rect class="cls-2" x="256.25" y="352.25" width="16" height="16"/>
      <rect class="cls-2" x="256.25" y="336.25" width="16" height="16"/>
      <rect class="cls-2" x="256.25" y="320.25" width="16" height="16"/>
      <rect class="cls-2" x="256.25" y="304.25" width="16" height="16"/>
      <rect class="cls-2" x="256.25" y="288.25" width="16" height="16"/>
      <rect class="cls-2" x="256.25" y="272.25" width="16" height="16"/>
      <rect class="cls-2" x="256.25" y="256.25" width="16" height="16"/>
      <rect class="cls-2" x="256.25" y="240.25" width="16" height="16"/>
      <rect class="cls-2" x="256.25" y="224.25" width="16" height="16"/>
      <rect class="cls-2" x="256.25" y="208.25" width="16" height="16"/>
      <rect class="cls-2" x="256.25" y="192.25" width="16" height="16"/>
      <rect class="cls-2" x="256.25" y="176.25" width="16" height="16"/>
      <rect class="cls-2" x="256.25" y="160.25" width="16" height="16"/>
      <rect class="cls-2" x="256.25" y="144.25" width="16" height="16"/>
      <rect class="cls-2" x="256.25" y="128.25" width="16" height="16"/>
      <rect class="cls-2" x="256.25" y="112.25" width="16" height="16"/>
      <rect class="cls-2" x="256.25" y="96.25" width="16" height="16"/>
      <rect class="cls-1" x="240.25" y="464.25" width="16" height="16"/>
      <rect class="cls-1" x="240.25" y="448.25" width="16" height="16"/>
      <rect class="cls-2" x="240.25" y="432.25" width="16" height="16"/>
      <rect class="cls-2" x="240.25" y="416.25" width="16" height="16"/>
      <rect class="cls-2" x="240.25" y="400.25" width="16" height="16"/>
      <rect class="cls-2" x="240.25" y="384.25" width="16" height="16"/>
      <rect class="cls-2" x="240.25" y="368.25" width="16" height="16"/>
      <rect class="cls-2" x="240.25" y="352.25" width="16" height="16"/>
      <rect class="cls-2" x="240.25" y="336.25" width="16" height="16"/>
      <rect class="cls-2" x="240.25" y="320.25" width="16" height="16"/>
      <rect class="cls-2" x="240.25" y="304.25" width="16" height="16"/>
      <rect class="cls-2" x="240.25" y="288.25" width="16" height="16"/>
      <rect class="cls-2" x="240.25" y="272.25" width="16" height="16"/>
      <rect class="cls-2" x="240.25" y="256.25" width="16" height="16"/>
      <rect class="cls-2" x="240.25" y="240.25" width="16" height="16"/>
      <rect class="cls-2" x="240.25" y="224.25" width="16" height="16"/>
      <rect class="cls-2" x="240.25" y="208.25" width="16" height="16"/>
      <rect class="cls-2" x="240.25" y="192.25" width="16" height="16"/>
      <rect class="cls-2" x="240.25" y="176.25" width="16" height="16"/>
      <rect class="cls-2" x="240.25" y="160.25" width="16" height="16"/>
      <rect class="cls-2" x="240.25" y="144.25" width="16" height="16"/>
      <rect class="cls-2" x="240.25" y="128.25" width="16" height="16"/>
      <rect class="cls-2" x="240.25" y="112.25" width="16" height="16"/>
      <rect class="cls-2" x="240.25" y="96.25" width="16" height="16"/>
      <rect class="cls-1" x="224.25" y="464.25" width="16" height="16"/>
      <rect class="cls-1" x="224.25" y="448.25" width="16" height="16"/>
      <rect class="cls-2" x="224.25" y="432.25" width="16" height="16"/>
      <rect class="cls-2" x="224.25" y="416.25" width="16" height="16"/>
      <rect class="cls-2" x="224.25" y="400.25" width="16" height="16"/>
      <rect class="cls-2" x="224.25" y="384.25" width="16" height="16"/>
      <rect class="cls-2" x="224.25" y="368.25" width="16" height="16"/>
      <rect class="cls-2" x="224.25" y="352.25" width="16" height="16"/>
      <rect class="cls-2" x="224.25" y="336.25" width="16" height="16"/>
      <rect class="cls-2" x="224.25" y="320.25" width="16" height="16"/>
      <rect class="cls-2" x="224.25" y="304.25" width="16" height="16"/>
      <rect class="cls-2" x="224.25" y="288.25" width="16" height="16"/>
      <rect class="cls-2" x="224.25" y="272.25" width="16" height="16"/>
      <rect class="cls-2" x="224.25" y="256.25" width="16" height="16"/>
      <rect class="cls-2" x="224.25" y="240.25" width="16" height="16"/>
      <rect class="cls-2" x="224.25" y="224.25" width="16" height="16"/>
      <rect class="cls-3" x="224.25" y="208.25" width="16" height="16"/>
      <rect class="cls-3" x="224.25" y="192.25" width="16" height="16"/>
      <rect class="cls-3" x="224.25" y="176.25" width="16" height="16"/>
      <rect class="cls-3" x="224.25" y="160.25" width="16" height="16"/>
      <rect class="cls-3" x="224.25" y="144.25" width="16" height="16"/>
      <rect class="cls-2" x="224.25" y="128.25" width="16" height="16"/>
      <rect class="cls-1" x="208.25" y="464.25" width="16" height="16"/>
      <rect class="cls-1" x="208.25" y="448.25" width="16" height="16"/>
      <rect class="cls-2" x="208.25" y="432.25" width="16" height="16"/>
      <rect class="cls-2" x="208.25" y="416.25" width="16" height="16"/>
      <rect class="cls-2" x="208.25" y="400.25" width="16" height="16"/>
      <rect class="cls-2" x="208.25" y="384.25" width="16" height="16"/>
      <rect class="cls-2" x="208.25" y="368.25" width="16" height="16"/>
      <rect class="cls-2" x="208.25" y="352.25" width="16" height="16"/>
      <rect class="cls-2" x="208.25" y="336.25" width="16" height="16"/>
      <rect class="cls-2" x="208.25" y="320.25" width="16" height="16"/>
      <rect class="cls-2" x="208.25" y="304.25" width="16" height="16"/>
      <rect class="cls-2" x="208.25" y="288.25" width="16" height="16"/>
      <rect class="cls-2" x="208.25" y="272.25" width="16" height="16"/>
      <rect class="cls-3" x="208.25" y="256.25" width="16" height="16"/>
      <rect class="cls-3" x="208.25" y="240.25" width="16" height="16"/>
      <rect class="cls-3" x="208.25" y="224.25" width="16" height="16"/>
      <rect class="cls-3" x="208.25" y="208.25" width="16" height="16"/>
      <rect class="cls-3" x="208.25" y="192.25" width="16" height="16"/>
      <rect class="cls-3" x="208.25" y="176.25" width="16" height="16"/>
      <rect class="cls-2" x="208.25" y="160.25" width="16" height="16"/>
      <rect class="cls-2" x="208.25" y="144.25" width="16" height="16"/>
      <rect class="cls-1" x="192.25" y="464.25" width="16" height="16"/>
      <rect class="cls-1" x="192.25" y="448.25" width="16" height="16"/>
      <rect class="cls-2" x="192.25" y="432.25" width="16" height="16"/>
      <rect class="cls-2" x="192.25" y="416.25" width="16" height="16"/>
      <rect class="cls-2" x="192.25" y="400.25" width="16" height="16"/>
      <rect class="cls-2" x="192.25" y="384.25" width="16" height="16"/>
      <rect class="cls-2" x="192.25" y="368.25" width="16" height="16"/>
      <rect class="cls-2" x="192.25" y="352.25" width="16" height="16"/>
      <rect class="cls-2" x="192.25" y="336.25" width="16" height="16"/>
      <rect class="cls-2" x="192.25" y="320.25" width="16" height="16"/>
      <rect class="cls-2" x="192.25" y="304.25" width="16" height="16"/>
      <rect class="cls-3" x="192.25" y="288.25" width="16" height="16"/>
      <rect class="cls-3" x="192.25" y="272.25" width="16" height="16"/>
      <rect class="cls-3" x="192.25" y="256.25" width="16" height="16"/>
      <rect class="cls-3" x="192.25" y="240.25" width="16" height="16"/>
      <rect class="cls-3" x="192.25" y="224.25" width="16" height="16"/>
      <rect class="cls-3" x="192.25" y="208.25" width="16" height="16"/>
      <rect class="cls-3" x="192.25" y="192.25" width="16" height="16"/>
      <rect class="cls-2" x="192.25" y="176.25" width="16" height="16"/>
      <rect class="cls-2" x="192.25" y="160.25" width="16" height="16"/>
      <rect class="cls-1" x="176.25" y="480.25" width="16" height="16"/>
      <rect class="cls-1" x="176.25" y="464.25" width="16" height="16"/>
      <rect class="cls-1" x="176.25" y="448.25" width="16" height="16"/>
      <rect class="cls-2" x="176.25" y="432.25" width="16" height="16"/>
      <rect class="cls-2" x="176.25" y="416.25" width="16" height="16"/>
      <rect class="cls-2" x="176.25" y="400.25" width="16" height="16"/>
      <rect class="cls-2" x="176.25" y="384.25" width="16" height="16"/>
      <rect class="cls-2" x="176.25" y="368.25" width="16" height="16"/>
      <rect class="cls-2" x="176.25" y="352.25" width="16" height="16"/>
      <rect class="cls-2" x="176.25" y="336.25" width="16" height="16"/>
      <rect class="cls-2" x="176.25" y="320.25" width="16" height="16"/>
      <rect class="cls-3" x="176.25" y="304.25" width="16" height="16"/>
      <rect class="cls-3" x="176.25" y="288.25" width="16" height="16"/>
      <rect class="cls-3" x="176.25" y="272.25" width="16" height="16"/>
      <rect class="cls-3" x="176.25" y="256.25" width="16" height="16"/>
      <rect class="cls-3" x="176.25" y="240.25" width="16" height="16"/>
      <rect class="cls-3" x="176.25" y="224.25" width="16" height="16"/>
      <rect class="cls-2" x="176.25" y="208.25" width="16" height="16"/>
      <rect class="cls-2" x="176.25" y="192.25" width="16" height="16"/>
      <rect class="cls-2" x="176.25" y="176.25" width="16" height="16"/>
      <rect class="cls-1" x="160.25" y="464.25" width="16" height="16"/>
      <rect class="cls-1" x="160.25" y="448.25" width="16" height="16"/>
      <rect class="cls-2" x="160.25" y="432.25" width="16" height="16"/>
      <rect class="cls-2" x="160.25" y="416.25" width="16" height="16"/>
      <rect class="cls-2" x="160.25" y="400.25" width="16" height="16"/>
      <rect class="cls-2" x="160.25" y="384.25" width="16" height="16"/>
      <rect class="cls-2" x="160.25" y="368.25" width="16" height="16"/>
      <rect class="cls-2" x="160.25" y="352.25" width="16" height="16"/>
      <rect class="cls-2" x="160.25" y="336.25" width="16" height="16"/>
      <rect class="cls-3" x="160.25" y="320.25" width="16" height="16"/>
      <rect class="cls-3" x="160.25" y="304.25" width="16" height="16"/>
      <rect class="cls-3" x="160.25" y="288.25" width="16" height="16"/>
      <rect class="cls-3" x="160.25" y="272.25" width="16" height="16"/>
      <rect class="cls-3" x="160.25" y="256.25" width="16" height="16"/>
      <rect class="cls-3" x="160.25" y="240.25" width="16" height="16"/>
      <rect class="cls-2" x="160.25" y="224.25" width="16" height="16"/>
      <rect class="cls-2" x="160.25" y="208.25" width="16" height="16"/>
      <rect class="cls-1" x="144.25" y="448.25" width="16" height="16"/>
      <rect class="cls-2" x="144.25" y="432.25" width="16" height="16"/>
      <rect class="cls-2" x="144.25" y="416.25" width="16" height="16"/>
      <rect class="cls-2" x="144.25" y="400.25" width="16" height="16"/>
      <rect class="cls-2" x="144.25" y="384.25" width="16" height="16"/>
      <rect class="cls-2" x="144.25" y="368.25" width="16" height="16"/>
      <rect class="cls-2" x="144.25" y="352.25" width="16" height="16"/>
      <rect class="cls-2" x="144.25" y="336.25" width="16" height="16"/>
      <rect class="cls-3" x="144.25" y="320.25" width="16" height="16"/>
      <rect class="cls-3" x="144.25" y="304.25" width="16" height="16"/>
      <rect class="cls-3" x="144.25" y="288.25" width="16" height="16"/>
      <rect class="cls-3" x="144.25" y="272.25" width="16" height="16"/>
      <rect class="cls-2" x="144.25" y="256.25" width="16" height="16"/>
      <rect class="cls-2" x="144.25" y="240.25" width="16" height="16"/>
      <rect class="cls-2" x="144.25" y="224.25" width="16" height="16"/>
      <rect class="cls-2" x="128.25" y="432.25" width="16" height="16"/>
      <rect class="cls-2" x="128.25" y="416.25" width="16" height="16"/>
      <rect class="cls-2" x="128.25" y="400.25" width="16" height="16"/>
      <rect class="cls-3" x="128.25" y="384.25" width="16" height="16"/>
      <rect class="cls-3" x="128.25" y="368.25" width="16" height="16"/>
      <rect class="cls-3" x="128.25" y="352.25" width="16" height="16"/>
      <rect class="cls-2" x="128.25" y="336.25" width="16" height="16"/>
      <rect class="cls-3" x="128.25" y="320.25" width="16" height="16"/>
      <rect class="cls-3" x="128.25" y="304.25" width="16" height="16"/>
      <rect class="cls-3" x="128.25" y="288.25" width="16" height="16"/>
      <rect class="cls-2" x="128.25" y="272.25" width="16" height="16"/>
      <rect class="cls-2" x="128.25" y="256.25" width="16" height="16"/>
      <rect class="cls-2" x="112.25" y="416.25" width="16" height="16"/>
      <rect class="cls-2" x="112.25" y="400.25" width="16" height="16"/>
      <rect class="cls-3" x="112.25" y="384.25" width="16" height="16"/>
      <rect class="cls-3" x="112.25" y="368.25" width="16" height="16"/>
      <rect class="cls-3" x="112.25" y="352.25" width="16" height="16"/>
      <rect class="cls-2" x="112.25" y="336.25" width="16" height="16"/>
      <rect class="cls-2" x="112.25" y="320.25" width="16" height="16"/>
      <rect class="cls-2" x="112.25" y="304.25" width="16" height="16"/>
      <rect class="cls-2" x="112.25" y="288.25" width="16" height="16"/>
      <rect class="cls-2" x="96.25" y="400.25" width="16" height="16"/>
      <rect class="cls-2" x="96.25" y="384.25" width="16" height="16"/>
      <rect class="cls-2" x="96.25" y="368.25" width="16" height="16"/>
      <rect class="cls-2" x="96.25" y="352.25" width="16" height="16"/>
      <rect class="cls-2" x="96.25" y="336.25" width="16" height="16"/>
      <rect class="cls-2" x="96.25" y="320.25" width="16" height="16"/>
    </g>
  </g>
</svg>